<mxfile host="65bd71144e">
    <diagram id="VFyICJ4NK-ZOt2epuqhO" name="第 1 页">
        <mxGraphModel dx="2929" dy="2393" grid="1" gridSize="10" guides="1" tooltips="1" connect="1" arrows="1" fold="1" page="1" pageScale="1" pageWidth="827" pageHeight="1169" math="0" shadow="0">
            <root>
                <mxCell id="0"/>
                <mxCell id="1" parent="0"/>
                <mxCell id="5" value="&lt;font color=&quot;#ff3333&quot; style=&quot;font-size: 24px; background-color: rgb(255, 255, 0);&quot;&gt;&amp;nbsp; &amp;nbsp; 总结：此响应式系统，由于存储副作用函数的桶是new Set，所以并没有与数据的关键字建立联系，哪怕你随便赋值一个notValue值，副作用函数也会执行。&lt;/font&gt;" style="text;strokeColor=none;align=left;fillColor=none;html=1;verticalAlign=middle;whiteSpace=wrap;rounded=0;" parent="1" vertex="1">
                    <mxGeometry x="200" y="-870" width="580" height="82" as="geometry"/>
                </mxCell>
                <mxCell id="6" value="" style="shape=image;verticalLabelPosition=bottom;labelBackgroundColor=default;verticalAlign=top;aspect=fixed;imageAspect=0;image=data:image/png,iVBORw0KGgoAAAANSUhEUgAAA2EAAALgCAYAAAAdl3/2AAAgAElEQVR4nOzdf3hU5Z3//5e9lMJkghKSjBoI5gcBSoRAQcSVXyJovnXbbYFv/VC2hXYR2Qv7tVrEH0v32uWjFanYT+VaVLZi99u69gO0u37tBxUREVeK2AApFIGQSABtEgg/MhOo5dp+/5iZ5GRy5sw5M2fOJMPzcV1eMmfuuc89k1/nNe/7vueK4ZXj/iKbBubn69zZs7p06ZLdhwAAAAAADD6X6QEAAAAAwOWEEAYAAAAAHiKEAQAAAICHCGEAAAAA4CFCGAAAAAB4iBAGAAAAAB4ihAEAAACAhwhhAAAAAOAhQhgAAAAAeIgQBgAAAAAeIoQBAAAAgIcIYQAAAADgIUIYAAAAAHiIEAYAAAAAHiKEAQAAAICHCGEAAAAA4CFCGAAAAAB4iBAGAAAAAB4ihGW5KdOre1Q/bsimsVg93m7fdtqlMs5Mvt7xzp3OMSXq23h/T/peTFUmXmsAAC5XV2Z6AL2Zk4uT7Vs3p3EkPVO6Xp/tWzdryvTqpF5TO2PqbV+rVF4Po3h9JNN/7OscfWy84+nSE7/ebv1c2O0nUR9m97vx/QQAAOIjhKUo9kLF7OIlU+8kR8eS6gVVKv3YaZ/sO/BW91udN9kL21QqBU4uhM0qLYlefzcumK3OkUz/iYKXna9vqs+rpwYJN35vJHpudl4/s685AQwAgPTL2hDmK5mk8YFPtPu3R9Uet1GZxk+8Xk07d6gxbqPeyXghlWrlyI1+kmHnHfpkxpNsKLZz4ex0HMZAYnydre43Pj7eGM3uMx6zcwGfSDq/D6Lnt6qc2a2qJRvW4/XlJCxlKsw4+d6MbRfv5y5RGwAAYF+WhrCASkr9OlVrEcAk5ZdVyNdck9UBLCrZKWWp9uPmmrRkplWZcWOKl5fsVqcSBZZ4Ac0sALodOJMR7/m5VTWKrTgmG8gy8drEO7excppojHaCOlUyAADSIztDWEGR8tWkAy1WjQIKFEqnaptSOlWiCxmvJZqyZvciyq1+3LhgS3ZalfHxVret2ltVV+xMq7NbnbEKSMb/2xmPFbcC+uXIzZ9rt35vmH3trKqnsY81tstkqAQA4HKThSHMr+KygNrrd+iURStfSYXyQ4e12zKoJdaT1oTFO3fsBZrdqlKicOHFxZrTCle8kJFOdqZNJtNXKtUZO/33RqlMq+0J44hy8/dGKhUrQjkAAJmRfSHMF1AgJ6impqBFI7/yA361NzVZTldMt1QuDK2mINl5rNljYo8luqiL14+Rk+doZ8qd09vJjCfVPpyE3HhVt2SmfMabmhZ72+p1TuXi26rimOjfTqeSujX91K7YNyacTAX1QjJvPNitdhPIAABwX9aFsPyyCvlCh3XKKl0VVKgkJ6gGy6CWfm5d2KRacXG7n2T6tAo2TioCTtslCi5mY7GqEtqdOhn7b7NgYufC3moqmdWaITsSTeO0uvCPna6Z6N92zh97LjuvtVuh263v83RJphJm500Wq3MAAIDkZVkIi67zSrAhx7UByaUNOXramrCeKt5r4mRdmdWaLycXh07XiFmdx+7X30kYtRue3J56GW9tUbxzpZtb03pTCd1m43CDm783kp1SaPVzQNgCACC9siqE+UoqEm/I4StTiQsbckT1pDVhbrJzkej0Qi3V1yWVtS/xxuHkotxO9TDV6XxOHms3wCaaVtYbvz+l3h0U3Pq9YXdKodUYEv0MMCURAAD3ZVEIi6zzqt9jvSFH4Hr5QocT7JyInjoVyY21KslWwtItU+HdbEpkNvHi651K9TMViarEbky1BAAA7sueENaLNuS4HKSzIphKAOup4TIqdk2X8XiyLvdKhp3KZ6qvTaZf21TflLAKc2zQAQCA+7ImhNn64OWCCpXkNOlAQ+obcnBB4oxbr5XxojmZC+h0TLN0i1vfU/GmbGb6ezbVtXvZIJ1fg1TelHArjAIAAHuyJITZ++Dl6IYcVtMV3ZTpi95kJLNLYbLVJSfhwOwiMZkLyHRVwtzoJx2Vw0S7JcZ7jN3jiTZKsbuhiJlEr4fd7x+70xF7ys+rk58ft84nJV5z2ROCPAAA2eKK4ZXj/mK38cD8fJ07e1aXLl1K55gc85VM0vjSkA5stQhYvjKNn1ih9trNKa8Hc3IhkumLlkyfPxGr8Tndrc2qfTIXrIku7FMNdImeu5MNSMwCiVu7STph95xehV+n9yfTn9M3Hexw+2tkNT3Y6fTDnv47BQCA3iALQphfxTdPUqBph3ZbTDP0lUzS+MAn2v1b6+3rAQAAACCdsiCEAQAAAEDv8blMDwAAAAAALieEMAAAAADwECEMAAAAADxECAMAAAAADxHCAAAAAMBDhDAAAAAA8BAhDAAAAAA8RAgDAAAAAA9dmekBuGLagxpVXdR5u/Ed1a55NXPjyZhyzXlkkUblSsffXKoX3sn0eKI6xxVlNr7SOT/QgjGGRo2va/lzW70ZIgAAAOCR7Ahh255W7TZJGquBy+epKFH7BPxLVqt0wEF9tGKdPnNheKmLhJgzPSWUTNc9T9ypwd2Ot6n2xX/WhrquR6fcu0ijtEfrH31Z9fG6nLpEC8ZItS8u7fZ4t025d5VuH7BH639oMR4AAAAgTbIjhCGiTht+uFQbPDpbcM/zWpkwMU3XsGLp+JvWgWfK8CFS4+tpD2AAAABAprEmDOlVHtCAxI1UmLgRAAAAkBUus0pYZLpix7KjCzq57jGdPiJJX1bRU1M1sKPtCA1/anXHrfaan6vulRpnp5u6RCtmDjEcOKa3Hl2j7THNpty7SrcXR28ZpvSVz9Wyb4+RP3pX7p1a8cSdHY/rXFcVu+bKZFrg1CVaMTOv+/HIOWSsasWet60HTN2zO6aY17yzWhc7hXKMFjwxxqRdp4pvPKr7xuXq/If/qsd+cdTVpwMAAIDL12UUwsIhq1/Nz1UbDVPTHtSohY9L6x7T6SOv6uRDr+qkXFoTVj5Xy4Yf1PJH10QPaM4ji3T7I3N1vCM8RMOTMZyVa869c1Va97Lq617WykdfVuI1YYZpiJGw1c07B3V85p0adft0bajr7KN0TLn8Oqa3ogGkI6x1rs2acu8qLXhEDoJY9404/DNXacXMyI1IgFLsRhxdQqYhSNocU3RjD+OmH6VzlmhO+RptqNuqFx7d2vFY1oQBAAAgUy6bENbn7gka2HZQHxmrWdu26eSt8zTgi2N1+ojDKlcidS9rZZfCSp1+V9emUWPyNFhSvaTSOXM1KrdNtS8aq2N12vBcOhZGbdVbe/5KC8aM0BRt7Qh8XyzPlRr/qzMAThyi4J7nu1TLtr+1Rzd/u1xfLJfqDcf9YxZpxRjjOaJh0hAKIxWsM2a7NW74Zy3fEDlv3JBpc0zlczVnTK6Ce57vcp76DWuSDlqHf/GE7vtFkg8GAAAA4rh8Qlh+Pym36xTDDvmDJLkcwhQ7zTCqteNfgwfmSm179DuPNqOo31On4JgxGjZV2v6OpPKbVJrbptoN0eAzRANyzcJV2IBBkgxjtbcxR6psjmlQnvxqU+0edvYAAABAz3bZhDBJUpt3286HA1jXtVnh6XIenDyeupf128Yxun34dOmdreGpiG113UKgN+HKmZ44JgAAACAZl83uiJ+duiDl9lcfT84W2e2v8b8st1w/frpNys0z+byt9Nn+0TGpeISmRKYiHt9pXBd1TGfaJP/AIRY9eM3mmE60KqjccGUMAAAA6MEunxD2yi6dVpFKly9MGMTCge0G5Q5N9mx1aj4jaUBApZEjpbGbUEiq3/BfOq4huv2RuR3tOjbmMOuveISmJDukqHcO6riGaNicm1Sae0yHuqzTqtOGncek4ju1bE55qmdyic0x1b2s3zZKg2f+QMZm4Y05ujYNh9/wejIrFd94VM8+80M9e/+05IcPAAAAxLhieOW4v9htPDA/X+fOntWlS5fSOSbH+tz9uIaP7Wdyj3ELeqn7NvRmbcL8S1ar1LCey/kW9TFborft0fqdeVowUzHb1NvYXt60nXGL+tjt1w0au292EQ2Ecaf4ddtaXzFbwsc7n8nYrTbmiH1ucXd/tDOmrs8tKt5zjF2vZ9ru9sV69kvFkhr12vfW6o14wwcAAAAcyIoQBqRHmb71T3+ncf0JYQAAAHDPZTMdEXDs9pka1186/+GbBDAAAAC45vLaHRGwY9jX9fi9VeovqeE3j2j1W5keEAAAALIJ0xEBAAAAwENMRwQAAAAADxHCAAAAAMBDhDAAAAAA8BAhDAAAAAA8RAgDAAAAAA8RwgAAAADAQ4QwAAAAAPAQIQwAAAAAPEQIAwAAAAAPEcIAAAAAwEOEMAAAAADwECEMAAAAADxECAMAAAAADxHCAAAAAMBDhDAAAAAA8BAhDAAAAAA8RAgDAAAAAA8RwgAAAADAQ4QwAAAAAPAQIQwAAAAAPEQIAwAAAAAPEcIAAAAAwEOEMAAAAADwECEMAAAAADxECAMAAAAADxHCAAAAAMBDhDAAAAAA8BAhDEBWmzK9usecy3i/l+NKt3jPxclzTGcfPU1vGWdP5uZr6LQvq/Zu9mW3P7fHk+i/ZPT07/lUx5fpx3vdL9xxZaYHAAA9kZ0/Xtu3bvZgJJ2c/EG1GpvdfhL1YXZ/vONeS/QcvRhjvNdi+9bNjl4nr7/uifrpCZJ5DeO1ddpXtD+zfhLd5+TcdsdkZ/xOnl+q30Nu/A5wGh7ceu5W7LzGdseUTrHj6Cm/k9EdIQxA1kilmhL7R6qn/tGKHZfZH9hUA4idP9pmF37J/rFPx0VCvP68vCBJ5uLeqi+jZL7ubvbjpWQqPWY/z9Hn6uT3hNXrZfX97zT0JPOzZHaxHW/cbn4vJuLGudwI126Ox04/PeVNuZ76twvdEcJ6usk/1cQZeWp86as6eTT9p+s369eqqmrVoeXfUWv6T4eM+7PWv7hPXzg0WhNWXtV5eHKrdt33J7055zotd/mMvpJJGh/4RLt/e1TtcRuVafzE69W0c4ca4zbqzs4FphNWF39O+3V6sZvJd1GTfcc83rv5Vm2i91u1S+Ud5uhj03YRavN71exr3VPeOe8N3Hxtkv09EdsuNtjFu8+qP7u341VU06GnhfB4kvl5thvonQbgeMfs/E50+vhk+jbnV/HNk5R7dLMOtDh4GFxDCEunaQ9qVHWeTq57TKePZHowmZF3zxYNG7BXe1cu1YVMD6bHytG0VbdotL/zyPGtW7RpYxJdTSjRgvnlOm/z8StW7dPNKtVTxgAmSe/m6c2//lCzN0hyNYgFVFLq16laiwAmKb+sQr7mGkcBLF0S/aFL9kLAy3em7ZzbGFYSjTHRBYjTd/atgpnTc8c+j2QqE/YFNHJihVQfP4DFjiOWkwBg51hvkn9jtUbmHLZ+Q8ZFdqb82f0+jbaz+vranUpoNZ7oMTd4NR3RybmS5fTnOZWfQ+N9sUHb6vFOKlVuTk+2/+ZeUI1HmzRlVLVG1hLEMoEQBmRUoWatHa3BJ/bpx0ubO46OfOwWTZvwvrbtSt+ZFyw7qtk3FGnjnDytN7l/+dLRGvTiPs1elavlS/0mLZJQUKR8NSX4ZR9QoFA6VduU0qlipwbF40UIcvNi2a2L8Xjv3kf7s/MObGxQy9TaA7Nxp7/y5FfxzWOV31yj7Q1BW49I5fVx62I9W8JcvNcyE1PuMvn7JV71xOyNCS/G5XTqaLKVLC9/z9j93RbvDaB0jMdqDI7O21Kj3fWTNH7UWOVvrdEpF8YH+whhQCbNvk6DFdK+t5q7HD7w+Ps6kM7zTm7VvePO6OhrZRZVrqu04KVS7brvI732rXG662epntSv4rKA2ut3WP6i95VUKD90WLtdfFculYs1ty9Q3V4rkco758muRYnXzs0g5tYajnj9pfp19ZWMUUlOkw78tvubBfHCXuzrk4nQ6mXlxW2xFYlkfoYTfU/Y+drYqYLFntfO2Jw8zijZiraTMSUzFmN/qU+dsz6HmXg/h27+joo3Lq9+tt14s6m9YY8aApM08saAtv8+tTc/4UxWhTD/ktUqLY7eumAyDfDLKnpqqgYqTpuhC1W+8AadWbdJunueinIjxxvfUe2aVw39jNXA5Yb7JantoD5asU6fdRuHVLRwtYpM2tnXqgtHH9CwFdXKi4587/PaG51vVrZKVfOrdGHLDB16N/qYcPt+xnaSpNkqWrZIxR2FjcYE6786z9vlnN36CRrWrXUdq1SlqhVbOm5d6DYmj/iGaONN16rug99LlRNU5Yscb9mvO2NLM/mVer2yoPO2oc2sIRO0MPBHrfvgmDbFniO/Uq9XSm+8s1/P2B5YjvIGS0pU9Zo9WvdPL+y8fWKffvx4OLwVLr5Fc0fldNx19fQZun969Faztize1yXULZh4Rv3bSvVcomD1bp7e/Ot6zZ7SqgU/M6+Y2eYLKJATVFOTVdXAr/yAX+1NTSlNT7IzXSOZqULJjsX4znSiC95MX5QnG8CMj3ejMub0gslqCqP7It+n9XtM31CwCnvJvi49p4IV0MjpY5VvPNRcE3PxFl5rUtLxKymoho41c7GPr9D46RUdt9rrd2h3nMpisq+dWXXU+P2SilSrOz0tFGeikp0u8X4Ok/k+Mvt95OabOqlI/c2m8LTEklEVKvY19YhlAJeLLAlh0VB0UvUPPa1g9NiShepzJBJ4hi5U+cIRUs3PVftKjSSpz92Pa/jC1eq7+QGd3Bbtq5+KFs7T6c0PqHabIuu6pqpo2qsdbfxL5qlIB/XRQ+ZhKrjmAdVKLq4JK9awFXlqfGmGDh1VZLOOb6ho70aHm3VEwlFwr/Yuj67RekDD7nlArS+stm7fZU1XZ8DbGQ1Tk3+qifN/Lb30VZ08ulqHlof763lrwnyqummCGvdv052nFAlNlXohf5vuiVxNzRoyQQtLQnrjnW2RIOXTkzdN0OsjDWHNl6tik95n5eRI7X9Uo93hbKzTvgmFGj19hu6fUKeXlzao2aRZOGSFtGXxlkiYCq8ju/+xcBBrXvu+fizZXBP2Z00edkY6HbAVqpbvL9Lsu/6kUrvPKY78sgr5Qod1yuoXfEGFSnKCarAMatYSTRFyswJmZ3pKojaZvuhJphKWqL2dC8vY+63O5eSCyfi1j+3XtQslX0CBHKk9mNz3aTLPKVZmpn4apmDGfcc8HLJ89Ts6p2kWjNWUiZOknTvU2N6kA5Fxp7omLJXKotX3aLIX6NHH9jZuV76szpPp33fpkmhaquTmWi7rxyX19Ww5qVMaq9wcyZMFmpCUJSGsz92zVJR7QSfXRQOYJNXo9Jqajlv+O0bI13ZQH73SeeyzVzbp5NB5Khr5ZZ3c1lnpOm0MZduO6HR1kfoFxkqqkTRWnx8g6UyTw2pWKoJdd0d8d7MaJy5SQdVsnTxqv6KUd0+18tSoQ10C0WodesGkcaS61u/4Zu2MCWj9Zk0KBzPjVX6SY0osHIA6qlYxGvd3hie7ujzmVJMaVaC8HJ/C6aBAd5T41Lh/l6GS1a6H61v0emVA31OLngmFtLDjvgK9MLVSivRZ7PdJofbuFbK4Qtq2dIsOLL5Fc0eVa+7ackkh7XvJuB6sUJNG5ej4VuMUxZC27WrW6OnXaaSaHU5d/JMKcqWj222u82r4vM6rXmO+dZ2U9JTE6DqvBBtyXBuQUtiQw+67yHbfvU71HcZ0XHC4WRFJdkqh1R/9ZJ5zqu/8m1UbE4XLlC6Wc66WT01qSHLKrBuVwmSl9v2To9wcqb0pFLdFx3RiYzWr5bAaQpMUCPjVaHP9XDzpeN0yGQ7c+HlONfi5usbI4vGZ+p43k8wYUn1TLdH01mS583supLaQVHJtQGphSqJXsiOE5feT2g6qLW61KRyc2o/8LiY41ajtyCxpaEB9JJuhqkan35umouqpGvXU1CSnF6Zqoy6cWaR+A81qMfHMVr8Bko4fsLH1fLGGzS+Wgnu116RC1m+gX/J3nWLYwdGY7GjXwx9sS9zMLT6f8iT5K6fpdZOxBHyS2tsU1LXhf/sC4YpYoEA6Fb4iCwbjX6DE01HJimzUMXr+DOUNjlSzJuSov2KnGEaFVDhBOuBkA4/Jn6lAkpcbIflKKhJvyOErU0mKG3IkClJS73831q3pS3anFFqNIdEffLcuunra18vnz5Hk/OdcSu6i1KqqG8vpRaKz758mNdQHNb50kqaUymQaouTz+6WcrlMMO/hzJKUWwmKlus4nmUqwWR/JcKPCafX8k30uPe3nLdPsfn17yhsrvbEae7nKihDmuW1Ph6cqRqY4Dn9qtSTjVMh0iwSqM+nqv1GHXmpV8fwqVd3zQLdKmKRwQOsxUwzdZ11ha1erfMrzhacfNu7fL1UG9D2FFEj5GqNZmxa/H96yfkKJCjd2Tk9Metv6WO/2Uct9Th80QC0NyZ7Qev1MlC9wvXyhwz1qm1wv/riluqYkWYkuXt2YaukVq3eYrW4nqz2JN1qi50+m8thzpiNK7Q07tL1B4SmGo8ZqynRJoZgphbG3e5h4lchkX9NMTkd06zkkOkcsu1O6E01VzjQn1S2rr22yXwc3q2Bu9Jfs7zYkJytC2GenLkjF/S2qWTX605l58g39ovqoxtBmrHKH9kt+auGRdap7SB1h7OppUtCTok2x/H7pQp3tlUeKVs804Dr1kxKHp6NLtXfLTzVxRrWqZjV2mXp44XRQGpxnr5+UuT8d0VJ7u1olw/REMyG1tkt58ml8IKSDH7RILZUakd8k+aTWkMuXHrtCOj9f6l+Q/LvvXX1eLW3SzZVBSTamJJb8Sf3l04l3Ezc15eGGHG6zM82jt1d5Unn3NtE6mkxOu5PSuDti6JzaVWEsgCfUk0KrK1pqtH2rImHseuX7jqqxPbJOrvBq+eTO0hI31hyatY130ezF18mttUGpTCdOds2bXb3l+z3Vr3nsY51UuePd7yTA2T2euL/IVOMk17kiOdkRwl7ZpdNjp6p0+ULD1MCxGrjki2pbE74dPHBSqh6h4rvHqq5jY47IWrJXXrXo3YZB/eXTBZ05EXP8xHm1q0gDvjhWp4/UmD40GR1ru6LB6OinuqAq9SuYLWmjuuxoaHhc69a9utCtuvWAht0jHTKrdr37He0t+LWqqhapSuoIYhc27VBrVbWGLVuVsBoWDmzlyiuTw01EojyejqgWvdHQroUlE/RCKF7Aa1dTSCovvVHFoXrdKUlNLXq9tFRBtavOwZVH4eJbNKnl/a4VrtnlGu2Xjm+NVsGataM2pLmjbtGs2QmqYZHANnhYoWS6xYckXaV3Dw3QzePatEL+hB/EvKLypNRWqnr7T6sLWx+8XFAR3u47xfUi2SydFzWpvPvvRhjtddNn2pvUFKpIuH7C7oW9Fxer6fr+iU7NbI/8fLc3HNap0rEaeXNZwmpYOLB1BrhkJBso4oWZZC7KnX7/uhWQkp1OnOjcbq4D6wkSPa9MTNlMZTq4sZ1rYysoUr6CaqAQ5qmsCGHSqzr50AldXD4vMjVQim4/31Hh2va0ak8sVPnCeRo1dl7kYDJTCGO3ue88V7cdEI+sU93mBzWq2nBOp2vITrbqgopVPH9L5258XXY3lKTVOrRlpCbOWKSJVYsU3sjjeQVnL1KBsa+jS7V3eTigTVwR/aMR3qI+ngubvqpDA7doWNUiTRxYHAlvq3VouTRsRXXMurCYDUSMjzeMP2Nb1Nu06dguSRO0MHZdmGGb+sZgu+4o8KmxPvI2+KkmNVZWqlgtanJwMdG89n199NgM3b/WeDSkfS9t6fJBzc1r39fLi2/R3Nh1YYZt6iMttemlOi2YP9rQZ/ct6tfvHKB7x9Vr5rJ8LV95VfwBTm7VzBuko68luz29vQ9ejm7Ikc4PinRjrYfVO4894aIj1XdQkzmflHgjDLtrzOKNz80qhTtfq6BONQVVUhp/S2ez52+Hk2qd3YqJXQlfG1+Zxk+sUNeJCU060OVDXsO3R04fG7MuzLhNfVh7ww4d8Fdr5MRqlUSPGbaoj620Wo07lp2L7XhvIDj5Xsv0z72TcdqdTudWddzq/mSCbqrjSfbnMJVzxrvf+H+n/bj/eyH8GZ6pbIqF5FwxvHLcX+w2Hpifr3Nnz+rSpUvpHBMADyxYdlQPjfNp45zr4lTD/qz1L+7TzaeHa8RSmzspxvCVTNL40lDMRVpso/CFXXvtZlfXg6W6UN3pVJJkpp6kY92A24Ew3ril+NPCUp1mY3ccVm2s2rvzGkU+CytktV17z5DJ75+eyE71NtXvn2QrxKlUsJLtI9mLfSm5DyhOV8DzgtXvGOPr5cY4vXq+tv5OIy0IYcBlKxKycotMg9iKVR9q9g3m99kTvkgNNMX/8FUp8gcg8EmPXsgPmIpWhiw/NwsAeqiCsZoyKqBTLr8JCnsIYcBlLRzEvnBotCYYpyVObtWu+/6kN5MOYMBlwlem8ROvV1PMVDsA6NnCb5TmHiWAZQohDAAAAAA89LlMDwAAAAAALieEMAAAAADwECEMAAAAADxECAMAAAAADxHCAAAAAMBDhDAAAAAA8BAhDAAAAAA8RAgDAAAAAA8RwgAAAADAQ4QwAAAAAPAQIQwAAAAAPEQIAwAAAAAPEcIAAAAAwEOEMAAAAADwECEMAAAAADxECAMAAAAADxHCAAAAAMBDhDAAAAAA8BAhDAAAAAA8RAgDAAAAAA8RwgAAAADAQ4QwAAAAAPAQIQwAAAAAPEQIAwAAAAAPEcIAAAAAwEOEMAAAAADwECGsh5gyvTqp+5y0t9uP0/MBAAAAsO/KTA+gN0smrGzfujkNIwmPxazveMed9m0lXc8JAAAAyEaEsBSlK/gkM47Y87o5jnj9UDUDAAAAnMnaEOYrmaTxgU+0+7dH1R63UZnGT7xeTTt3qDFuI2fcDmBO+ottFy8gJmoDAAAAIH2yNIQFVFLq16laiwAmKb+sQr7mGlcCmDHc2A06se2it63a2wlWscfsVsnMnkO0DRUvAAAAwNj7RM0AACAASURBVB3ZGcIKipSvJh1osWoUUKBQOlXb5Npp7Qak2PbGQBQbhIx9moUps35i/+90/FbniHc/AAAAAHuyMIT5VVwWUHv9Dp2yaOUrqVB+6LB2Wwa1zImGsXhVLrMqlllwIjABAAAAPUv2hTBfQIGcoJqaghaN/MoP+NXe1GQ5XdEpN6fsWQUos2mM8YJWKpWxeBU6s9sEPQAAAMCerAth+WUV8oUO65RVuiqoUElOUA2WQc05p9MRk+nP7HiiqYJ2qmaxzKZCOnk8AAAAAHNZFsKi67wSbMhxbUByaUOOVMVWm2LDjhmrDTVibzutfCXzOAAAAAD2ZVUI85VUJN6Qw1emEpc35IhK9sObE00nTHQOuyHO7rniPY94O0AS2AAAAAD7siiERdZ51e+x3pAjcL18ocMJdk50LpXpem5soOHVFEE7oRAAAABAfJ/L9ABck8ENOSR71SOrx0aDmFtjsNpBkeAEAAAAZE7WhLDwBy8ftl7nVVChkpwmNTSkviGH1Vouo0Shx/jYVALS9q2bOx7vZlWMTTgAAAAAd2XJdER7H7wc3ZDDarqiU3bCWLzphnZ3MnQylnjnMwt7ye6aCAAAACB5WRHCvN6QIzbQRFmt7bJ7LFGbeB/ebDUWux/kHHvM7ZAIAAAAQLpieOW4v9htPDA/X+fOntWlS5fSOSaH/Cq+eZICTTu022Kaoa9kksYHPtHu31pvXw8AAAAA6ZQFIQwAAAAAeo+s2ZgDAAAAAHoDQhgAAAAAeIgQBgAAAAAeIoQBAAAAgIcIYQAAAADgIUIYAAAAAHiIEAYAAAAAHiKEAQAAAICHCGG9UdkqVa3YomGTMz2QDJjcql0bPtTBDR9q17I/Z3o0AAAAgGNXZnoAWW3agxpVnaeT6x7T6SOZHkzE5J9q4ow8Nb70VZ08munBOBXUa/fVSx+O1oiVV2V6MAAAAEBSqISh9/hWm8pUpDcJYAAAAOjFCGEAAAAA4KGsmo7oX7JapcXRWxdMpgF+WUVPTdVAxWkzdKHKF96gM+s2SXfPU1Fu5HjjO6pd86qhn7EauNxwvyS1HdRHK9bps27jkIoWrlaRSTv7Zqto2SIV+7sevZCgzYW9z2vvpo2SpLx7tmjY4M77iudvUccQg3u1d+XSzv4m/1QTZxiegBp1aPl31OpozAAAAADMZEkIi4aik6p/6GkFo8eWLFSfI5HAM3ShyheOkGp+rtpXaiRJfe5+XMMXrlbfzQ/o5LZoX/1UtHCeTm9+QLXbFFnXNVVF017taONfMk9FOqiPHjIPU8E1D6hWcmlN2AMatqJaecc3a+fK1eFDZatUNb+qS6u8e74hbZyhndF1XpN/qokzFmlYy0YdeldqfWGGdnYct1gTVrZKVcMPaOfy70QOhMPdsGWrugY1AAAAAEnJihDW5+5ZKsq9oJProgFMkmp0ek1Nxy3/HSPkazuoj17pPPbZK5t0cug8FY38sk5u66x0nTaGsm1HdLq6SP0CYyXVSBqrzw+QdKbJYTUrOf1mTVKeGnXohdWW7Vpf+GrXA+8eUOuMYvUrmC1po/0THl2qvV3C2Ua11n1DxVV56qfY6puF/Eq9Xllgfl97vdZ9cEyb7I9KkrSi8qT08XAtd/g4AAAAoCfJjhCW309qO6i2uNWmcHBqP/K7mOBUo7Yjs6ShAfWRbIaqGp1+b5qKqqdq1FNTk5xeaF+/gX7p+I7EUwEj1bF+MYeTqVzFTl0MczgZ8dR+3flOEic3sWLVh5p9g3T0tXEa8TN3+gQAAAAyJStCmOe2PR2eqhiZ4jj8qdWSjFMhPRYNYMc3a2dHxSw8jTE2lCUSDmDBLtMV+836taqqrB+XTsuXjtNyhcPYwRdL9dS387Q+c8MBAAAAUpIVIeyzUxek4v4W1awa/enMPPmGflF9VGNoM1a5Q/slP7XwyDrVPaSOMHb1NCm4LeGjnBtwXdepgEV5JreDatxqPWUxsdnqN0DS8R2pf4ZYGqYjLt9fpNl3/UmlKQ4NAAAAyKSs2KL+s1d26bSKVLp8ofp0HI1szBG5FTxwUsodoeK7x3a06FhL9sarSsmg/vLpgi6eiDl+4rza1U8DvjjW9GF2tH7UKPmrVDw5cqDbzoWSTrbqgvzyd2zBGNnMw6zDSNuCqtkmd27UhTPqCH1StArmN2mbwKn9uvOdbeb/JRHAAAAAgGyRFZUw6VWdfOiELi6fF5kaKEW3n++ocG17WrUnFqp84TyNGjsvcjCZKYSx29x3nqvbDohH1qlu84MaVW04p9M1ZO9+R3sLfq2qGVs0cYbC28kvP6DiFdWdbY4u1aG9hjaSWrc8r8aJi9StFnV0qfZuCe+cOLFqUfiYYYv61hc2q3VFtapWbOm8b0ueqmbYHTAAAAAAK1cMrxz3F7uNB+bn69zZs7p06VI6xwSY+9anOniXtHHOdeyQCAAAgF4rK6Yj4jLR8Hmd10nNXPbnTI8EAAAASBohDL3Hu3ma8FqR+o/bp4MbPtQuwhgAAAB6IaYjAgAAAICHqIQBAAAAgIcIYQAAAADgIUIYAAAAAHio14ewgfn5uvLKLPm4MwAAAABZr9eHMAAAAADoTQhhAAAAAOAhQhgAAAAAeIjFVEhBjn705K0a42/S5iV79SPjXTeV6j+/OVStb7+hBb9K8TRfq9LW2wKdt0/s1fQnm2IaBbR+TZWKO26bjKkXm7PoVt17Y07H7eDv39NXng/ZfFzQ5LWw+NoBAAAgraiEpdPti/XsM4/qW8O8Od0d9/9Qz/7T11Xhzem886u9mr7kDU1f8p72BOM1atKCJW9o+pI39NzvE4eT3mbD8+9FXoO9asz0YAAAAJASQhgAAAAAeIjpiEhBSH88K0nndSzTQ4FDfO0AAAAyhRCWBnfc/0PdNaTz9rh7f6hx0Rvn9+rZf/ylDkdvD/u6Hr+3Sv1N7y/Tt/7p7zSuv9Twm0e0+q2Yx5zfq2f/sVl3PTNTJR1nq9J9z1R13Dr/4b/qsV8c7TK+0jk/0IIxuQrueV4rN9Sl9Fx/9OQbFuuJQjp9Irr2KHzEdC2TrTVfbuk6HklqdLhubc6iW3VvySd67uF6bYi982tV2nqbDOusYteqhbTn397T9z/oOp6hDe/pKy1DDa9DbDubImvx/F0Oms/htP7aAQAAIF0IYWnwxo8f0RtSeE3Ylwbow+ee0M8OmTTsuP+RjvvvuP+Huu+fFAliR/Wzf/xX6Z/+TuO+tFh3vLVWb6hM35obDWDhsLb6e9s6HnvXgJiQl1E5GvPNW9X49hua/itFAsqtWv+1ztDTuXFENBCEQ8nWh9MRxCKB6MReTX840vfXqrT1tjv0nwX2Nrro4O+vISaH5xT4peAn4epSJBDp9+9peqTvOYtu1b3fvEPrB3UNfv4bb9VWNXW8Dt9/+A5Vf61Ucz4wCXrxRMJs49tv6CtdXl/7TwsAAADpx5qwjCnTtyYV6/yHv+wS0N7YvFfn+5dpYsdmHkf1s398Uw0q1l33T1PFN76ucf0b9VoKQat+wz9r+aNLU66C2dGlyvSrT9UoKa8gustfQP/XjTlqfNu4O19I3/+gSRp0nb7v8ljmLBqqYjVpszHc/WqvNp+Q/CUBzbHZz4YWY2UpoPVr7tD6r4VvDRmQI50NaYOk7982VP7gEf3cEO42PL9He4JScUWgS58KHtFzhl0Kj50JxQ165nL0o5sC0om9qe9GCQAAgLSiEpYxxRrYX+o/7u/07Lju9w4cLKkjnG3T6ucK9fi9M3XfEKnhN0+EK2293U05ypPkv+0Obb0t9s6Qrr1JktPpeBaGDMiRThzpNgXvR4ebVH2bg8Bz4ryCuj48vkHXhacaVgQkhcNd8ExQUo6uvUYKNjTFVLJC2tUQ0piSHM2ROu+LBLeoDc+/Z78CJknya6BfavwgXdM4AQAA4BZCWIaZrdkyNTivY93YwECZJBuP6SWcrsnKuA9Cav1mjgYOCk8/bHx7r3Tbdfq+grr2GklnMj1AAAAA9GRMR8yYRp0+L/UvKE7cdNjX9fiXinX+w3/Vfb9pVP9xX/fss8fS6oOQWmWcnphex86ETKc5fr8iIAWd7BIY1OmgJOVoQklQB37VpAMnAhr5tXA1qrUlpOjug92nOeZoQklOt8qXW2JfyyEDvHltAQAAYB8hLJ2Ot+q8clUxrszkzqP62Y5GachMPf4Ns/ujOjfi+NkvjkpvrdVrx3I17t7FuiOmZUNLm9RlPZm50jk/0IonVmnZnHKHT8htTfo/vw/Jf+OtHWuq0mnDnk8UVEDVDxvWY32tStWDpEYnG2BEAlbeTWM05uyn+pHCUxqLbxqqPIV0+kS41Y8ON0n+oZq3qDMIzVk0RmP8Ie152+1pg006cELy3zi0I2R+/+E7VD3I5dMAAAAgZUxHTKdDv9Rjv8nTs18yrPsybkH/1lrdp8Vd7+/SZpoeeGamStSmD5/r3IjjjR+/qZHPzNRdzyyWvre2Y33Y4V88odcKfqi7DFvi257umCEbnn9PWnSr7o1dF2bYpj68w5+houOv0tY1Updt3LttzZ6j6jV3qFqGbfE/qNdXPghp/Zro46N9vOF4K/hjZ0KqHpTTuQbrV5+q8bYqFatJf4z29au9mn6iVP/5zVsN52sybF9vX7dAdWO0z87+fvTke7r2yVu7PO/ph4earLcDAABAJl0xvHLcX+w2Hpifr3Nnz+rSpUvpHJMjPXFMAAAAABAP0xEBAAAAwEOEMAAAAADwECEMAAAAADxECAMAAAAADxHCAAAAAMBDhDAAAAAA8FCv/5yw06dOZXoIAAAAAGAblTAAAAAA8BAhDAAAAAA8RAgDAAAAAA/1+jVhkqTJrdp1X736Szr/4WhNWHlVpkcEAAAAAKayoxL2bp4mzBmnEc+WSuP26bVvZXpAAAAAAGAuO0JY1Lt5evNjqawymOmRAAAAAICp7AphAAAAANDDEcIAAAAAwEOEMAAAAADwUNaFsOX7i6QbmrR+cqZHAgAAAADdZV0I08+u04g5ARXc96EObvhUKzI9HgAAAAAwyI7PCTNYsOyoHhrn08Y543RXpgcDAAAAADGyrhJWmn9G+jhXyzM9EAAAAAAwkXUhDAAAAAB6MkIYAAAAAHiIEAYAAAAAHsqyEBbUmBuk86c+n+mBAAAAAICp7NgdcXKrdt1Xr/6S9PFwjVh5VaZHBAAAAACmsiOEvZunCe/mZXoUAAAAAJBQlk1HBAAAAICejRAGAAAAAB4ihAEAAACAhwhhAAAAAOAhQhgAAAAAeIgQBgAAAAAeIoQBAAAAgIcIYQAAAADgIUIYAAAAAHiIEAYAAAAAHiKEAQAAAICHCGEAAAAA4CFCGAAAAAB4iBAGAAAAAB4ihAEAAACAhwhhAAAAAOAhQhgAAAAAeIgQBgAAAAAeIoQBAAAAgIcIYQAAAADgIUIYAAAAAHiIEAYAAAAAHiKEAQAAAICHCGEAAAAA4CFCGAAAAAB4iBAGAAAAAB4ihKXZlOnVPeZ8TscSr73dftx87qmOxeoxxttef70AAABw+bky0wNAchf+27duTsNIwmMx6zvecad9W0nXc3Ji+9bNST1Xq+fWE54XAAAAeg5CWA+RruCTzDhiz+vmOOL1k6iC1xOCTLwxRscW/b9xvFTWAAAAECtrQ5ivZJLGBz7R7t8eVXvcRmUaP/F6Ne3coca4jcwluiBPldvBw0l/se3iBcREbdwQPY/V+ZyMxc7rEO/+dAVTAAAAXF6yNIQFVFLq16laiwAmKb+sQr7mGscBTLIOJlZrjhJduFutT7JbRYretmpvJ1jFHrNbJTN7DqlUhuL1n+jcTpk91knQYm0ZAAAA7MjOEFZQpHw16UCLVaOAAoXSqdom10+fasXEbkCKbR9vGlzsGOKte4rtJ/b/TsdvdY5496eTVUhyYyxMRwQAAIAdWRjC/CouC6i9fodOWbTylVQoP3RYuy2DmrXYi+2eOD0tXnUuesyskmQWnHra80t1PEwtBAAAQKZkXwjzBRTICaqpKWjRyK/8gF/tTU2W0xUTiRdOUr2od7N6YhWgnFSDUqmMWVWGkl1b5jT8Gsdu1peTfmL/Ha/6CAAAAJjJuhCWX1YhX+iwTlmlq4IKleQE1WAZ1Owxu4BPtXLkdDpiMv2ZHU9UHUombJq9Nk4eH20Xj53XOh27O7rxvAAAAHB5yrIQFl3nlWBDjmsDUpIbcvRUVlMj7e7kmMqGIm48Lp5UN98gEAEAAKAnyaoQ5iupSLwhh69MJS5uyBFvip7X0xETVYTsBBm7Ic7uueI9j3jT9tysHCbTRyoVLLcCLAAAALJfFoWwyDqv+j3WG3IErpcvdDjBzonOubV5RSrT2twYg1dT6dzcWj5dkv1sNaYjAgAAwMrnMj0A13i4IUdUOi627VSPEo0n1UBjtb29m+fpaZw+pynTq7PuNQAAAED6ZU0lzNYHLxdUqCSnSQcaUt+Qw87GFU77sbs7YaJ+UqmIxU4ldCtkujnVL53s7iZJpQsAAADJypIQZu+Dl6MbclhNV7TL6a6AidgJY062xE9lup8xgJmtD0sU9uzummiXnQ1E3PwsM6db2cf7DLbYxwIAAACSdMXwynF/sdt4YH6+zp09q0uXLqVzTI75SiZpfGlIB7ZaBCxfmcZPrFB77WbX14PFk8rW6W5OdbQblOJVvxKFnET9WwU5q2NOOP28MDf7BAAAAJzIghDmV/HNkxRo2qHdFtMMfSWTND7wiXb/1nr7egAAAABIpywIYQAAAADQe2TP7ogAAAAA0AsQwgAAAADAQ4QwAAAAAPAQIQwAAAAAPEQIAwAAAAAPEcIAAAAAwEOEMAAAAADwECEMAAAAADxECMsGZatUtWKLhk12/piJK36qvLQNDBk1uVW7NhzV+kTfF+VzteyJVbpnqiej8k7hCr16+7/p1dv/TT8uzPRgAAAAOl2Z6QFktWkPalR1nk6ue0ynj2R6MLAnR9NW3aLR/pjDJ/bpx483Z2REyQnqtfvqpQ9Ha8G7aTzN1CVaMTNPtS/+szbUpfE8TuU8qH8fNUT1td/U/b3pywYAAC4LhLDL1dGl2rs804PowbqErkLNWjta96+q08tLG9Tzr+n/rPUvfqSyj4drxMqrMj2YjJhSOFQ5oX36dc//YgEAgMsQ0xGBhJq1aWuz5L9OIydkeiyJLVjWqJtzi7RxaWw5DwAAAD1BVlXC/EtWq7Q4euuCyTTAL6voqakaqDhthi5U+cIbdGbdJunueSrKjRxvfEe1a1419DNWA5cb7pektoP6aMU6fdZtHFLRwtUqMmln3wMatqLasHYrqMaXvqqTR41tggqenK2iZYtUHL32Pr5ZO19Y3dEi754tGjY4puvgXu1duVQXHI3HLT49edMElTft0r/rRi0s8UWOt+iNd/brmS5Nh2jjTaXqiBXt9Vr3wTFt6rjvWtV9sEsPt8eeo0AvTK2U9m/TPadSGOrx8zqnQuUNlrRL0uzRun+6tGVxnQqN0xe7TVsMV9E6X/aQ9r30vrbtCt8a+dgMzRgknat9X+vXhmIe06wti/epZfEtmjtKXR4nSZpQogXzy3V+6xZt2hg9+GdNHnZG5z8sVvxCZ7nmPLJIo3K7Hj2ToE1wz/NaGZlzOOXeVbrd8D0+6turNCp6o22P1v/wZdVHb09dohUzhxj6Pqa3Hl2j7XHHBwAAkN2yJIRFQ9FJ1T/0tILRY0sWqs+RSOAZulDlC0dINT9X7Ss1kqQ+dz+u4QtXq+/mB3RyW7SvfipaOE+nNz+g2m2KrOuaqqJpr3a08S+ZpyId1EcPmYep4JoHVCu5syasbJWq5ldJe5/XzsiVdr9Zv1bV/C3yb5mhQx3rffwqnr9IrVtmaOe70cdVa9jk1R1tWl+YoZ2GrvPu2aJhA5Icl4v8JRO0sGW/7nynRdHQdMfIAj1zoCXcIL9Sr1fmaO8H2zpC1vdGTtPCmyRFg5h8yvNJig1hPp/y1K66buHMocH9dbVC+vi48WChZqwt1Lna9/XjtaFIKBqtWbMjoSgSkhS9X1Lh4ls0d/4M5Q0Otznw+BbpsRmaMWq0pk0Ih6yRj3UGsAOStLZOx9eO1g1jc6Rdoc6zj71OVwfr9JuNhiFNbtMXcqWWP8abhjhd9zxxpwY3vq7lP9waPlQ+V8u+PaZLqyn3zpU2LNXy6DqvqUu0YuYi3dOyVC+8I21/bmk4RCVaE1Y+V8uGH9TyR9dED2jOI4t0+yNzddwY1AAAAC4jWTEdsc/ds1SUe0En10UDmCTV6PSazpDkv2OEfG0H1RgJYJL02SubdLJNGjjyy136O20MZduO6LSkfoGxkQNj9fkBks40OaxmJSdvepX6BffqUGepQxc2/UKNQSlv+ANd2rYaQ9nRpWo83r2NG2YNmaDXp04z/29kgfMOW/brzmjgUosOtkjK8WmWJMmnJ0sLFGz4fZcq1zMN9Qr6rtV4n6T2drUauvveSMM4fLnyK6SmVELYhBItmF4onajrWomSdHzrls4K1q6QzkvqX5AjSRp5e3k4JK3tDE7Na/dpX1AaPKxzu74Dj7+vfcEcjZ5dosLZozVjUEj7XooEsPCj9NEJ6epR5RrZcaxQk0bl6Fx9c9c1aiV/Un8Vac/PzJ9K6Zy/0mAd01vPbbV8ytufiwlV7xzUcUkDCsotH9dN3cta2eVcdfpdXZuUm6fYoqx7JmrKtT6F/vg+1TYAANAjZUUlrE9+P6ntoNriVpvCwan9yO9iglON2o7MkoYG1EeyGapqdPq9aSqqnqpRT01NcnqhXbPVb4B0oW5XzHTBjWqt+4aKy69TPynuVMILp4NSgjbJ2HRslzYdc7FDSznK84WrZa+XdL83XP0KqbVdKs/xSadyNKJAkgL6nlrCUxrb29To9LSDRuv+tZ03j2/dovUbYxuF1NqlMtasTYu3dIy78Bp1D0kK6UB9SKNLc1QoRe4LadvSfcpbO1pzp4enJsaGvQNv1emm+eUaPls6sFHS7OvC1TJDwJOkBde2S/IpnsEDc6XG/0ocTiLVsdhVZUHTxtZipy6GtZo1TdFE/WDiYo3LadeHO7+p/xFK/AgAAIBMyIoQ5rltT4enKkamOA5/arUk41TInqHfwOzZmCHYsEuzj8UrZ7WrKSRV+XPC0w9b9usNVWpEvjQrJ0dSm/MTer0l/YQc9Y/88+q8HEkxCWJXsz6eXa7Rw8LRbeSw8DTIAzHdrP+jTw+lOpZoAGt8Xcs7qljhaYxOZ6+GA1hbl+mKpXN+oAVjrB+XnJ365507FQ5j/6ZXg5v15d//ezpOBAAAkJKsmI742akLUm5/9YnbokZ/OiP5hn4xps1Y5Q7tl/zUwiPrVPfQA6pdd1DtKtLV05LpxMpGXTgj9SufoH5djs9WXrlfOvOpRYUrXEWzbpMc16cjWgpXufz+HMtWjcFwQJtVcK1am1r0TFOLigMFKvb7pFB7ZN2Yl0JqPitdXVqorp8TnKORpTnS2ZChQlaoWfPLdfWJffrxS3U6N2i0Zs3u3t+2Xc3SoOs0UoUaPqhZH6w1KfU0fF7ndVJjvmUxtAEBlRpvD8rrWvEalCe/2lT7lvWUxcTKVThAUuN/efwZYju1/Y/tkv96TfHytAAAADZlRwh7ZZdOq0ilyxcaQlZkY47IreCBk1LuCBXfPbajRcdasjdeVUoG9ZdPF3TxRMzxE+fVrn4a8MWxpg+zo/WjRslfpWGGq/J+s76hYn9QjVtXx32cnTbJ2nRsl+58Z5v5fx1ru9zSrofrW6SCSm0cEn+a3aZQSMop1f8oCengKUmnmtRYUKq/ypGCwczMSztwqFnyl+tLizsDZOHi0RrtD2nfW50RrGMjjsebpV0N+k1tSIOn36Jpsdvhb/xUx1WoGWtHa/CJT7tVwSRJ7+bqD21SWaV5TXb7R8ek3DG6fWrkQLedCyWdaFVQuRowKHogspmHWYeRtqVjzNaK1an5jLqEvnAVLNekrcIVuCdWacUTSwhPAAAgq2XJdMRXdfKhE7q4fF5kaqAU3X6+o8K17WnVnlio8oXzNGrsvMjBZKYQxm5z33mubjsgHlmnus0PalS14ZxO15C9+x3tPLlKVfMXaWLVosjBRh1a/p3OVTVHP9UFVSlvxhZNnCHzNr3Zqf26c3+lXq+MWRdm3Ka+vU1BX4H8LfWRre1bdLClUncUSI2hVLdGTNLGffrx8RItmH+LYX2ZYddD5WhaZHv741s7N+JoXrtP+1bdotHzb5FkXB/WrB21ofB29W/Fmyp5ld49NEA3j2vS+sl+LXg35u531mh9wQ+0YOYqrZip8Hbyjx7U7U/c2dmm7mVt2FPe2UbS8TefV+3ERV0raJG2K9/M04qZi7QiOsXQsEX99ude17An7tSCJ8Z03vdmnhbMNBl6XZPOSPJriG6eU67t3pbPAAAAPHPF8Mpxf7HbeGB+vs6dPatLly6lc0zwSN49WzRMXT9LDD1b4eJbNLf0U728tEHxV6z9Wetf3KebTw/XiF72gc3RStnxN8Nb4SdrSslzevDaI3p659PskAgAAHqcrJiOCBvKVqnqnge63C4eLLV+RADrNWaPDlfBNloFMEm6SgteKtX5Gz7SwVU9aauYRKbr9jG5UtsevZVCAJOk7aEWKWe0vlqYuC0AAIDXqIRdRvrN+rWqqjorI10+Vww91sjHZmjGIEkKad9L3bevj2tyq3bdd0Z/eLas+7TEHqZjG/suOzKm2GfJc3qwLLyOsL72m7rfw80uAQAArBDCAAAAAMBDTEcEAAAAAA8RwgAAAADAQ4QwAAAAAPBQrw9hA/PzdeWVWfJxZwAAAACyXq8PYehuyvTqtPfl1jncHGsy55syvTruf0778/q5AAAAoHeihHQZmDK9Wtu3bk54zK2+3TyPnWCT6vMwezyBCgAAAOlCCLsMbN+62VEYMqsWGfty0rfZ/U77vwkP7QAAIABJREFUj7aJ7SPat1lgciNgAgAAAOlACPNQ/o3VGqkabf99U9w2vpJJGh/4RLt/e1TtaRpHokBmFnasOA08TvtP1FeikJdIslWveBXGeAiGAAAAkAhh3vGVqaQwqIad8QOYFFBJqV+nap0HsHjVpeiFvzEAJJo+aOeY2XGrapgbUpkiaLZ2a/vWza6OzWnFEQAAAJcnQphHfIHr5Qt9olNW6aqgSPlq0oEW5/3Hqy45XVMVb8qfW2vK7IQ8O2HOaSAzm9Zodl67Y2HNGAAAAJJFCPOEnQqXX8VlAbXX79ApF8+cbFXGGFYSVXjsTMszq8jF68tLZoHMSYCNtqP6BQAAALsIYV6wU+HyBRTICaqpKejaaVOtViWa4mglUdUqtiJlZyqfF1vv232ssWpmN4ACAAAAEiHMA+EKl5prLCtc+WUV8oUOW09XdCCVABYbiNJR6TELXU42AImtXDlZk5VoZ0WrgJaOjUoAAABweSGEpVukwtVQa70hR6BQSW3IEcusOuNkx754j7Oq+jgNHdHHeBlWzKYbJvNcCFgAAABIFSEszexUuHwlFUlvyBFlDEluTYdLVyUs1V0EY6dLOpkeGW+qZWzfZo8FAAAA3EAISys7FS6/8gN+tdfvSWlDjnQEBatKWLJByqzP2H/bqcaZTWV0Mp54u0DG3pcMghwAAACsEMLSKUMbcrjFSSUs2TaJ1nKl+7O3Ug1zZghcAAAAsPK5TA8ge0W3nD+ceEOO5sNqdGlDDjcZN66I/tt422zqo1VfVmuwrPqyE2qcjifemBKNBQAAAEgVlbB0sVXhik5XtNq0wz47n9dlxs6HI8c7j93AYmcTjFSmOCaaJmn2Ic1W53FzeiIAAABgRAhLE6825DBKZtt3p6zCk9W4jI93c1x2w1wyAY/wBQAAgHS4YnjluL/YbTwwP1/nzp7VpUuX0jkmR3rimKSARk4fK9VutghYfhXfPEmBph3a3dDz1oMBAAAASA9CGAAAAAB4iI05AAAAAMBDhDAAAAAA8BAhDAAAAAA8RAgDAAAAAA8RwgAAAADAQ4QwAAAAAPAQIQwAAAAAPEQIAwAAAAAPEcKy1KXZu3Vm9j9kehi9V2WpfvndL+jhQg/OFfgXBR/833L148YD/6Lgg7t15sHdCt42z82eAQAAkCJCWK+Qo2mrZuj+x+wlgv++7W21DWlQ7sb/GafFNVr53bFaWeneCL3RVw/PH6sXp/RN+5luHdhX0kWdbE77qaSmv1ffYyVqcy2I/YMuzhsv7flfGvD0ePnf/rkrvQIAAMAdhLBsM+p/69wYKefn/7eujNemsK8KdFFnvAgYruqrAf2lltMX036mkgF9pcZW/b9pP1PYlRv/l3LOlajNjerlqFG6oAb1JXwBAAD0SISwrPIPujijRFfteVF9muK3unVEnnK8qvK4qTJPN3gSHvuq6BopdCb9Ya/Tz9Xn/9utq4Z8RRdHeXhaAAAAeC5usQSpG/nYDM0Y1P34udr3tX5tKHxjQokWzC/X1dE7g3V6eWmDms3u84/W/Ws7+zm+dYs2bTR0HKmA5JpWQK7Ryu+W6oaO231113fH6q7ozcZ6ff0/znbc+7d/M1Z3Fcd0YWhz65Qv6L6SVj370lndOv8LGtPfvB8VXqsX775eOV06uqg9r/xBTxrCVOz5Qvv+oG9vv6jwFERD/5LG3D1Wv4zeOP+Jnn3pj3rP5BknrfAaVUQqbl3GFfvcFHkdRhumRxrbRJ57y9s1WrY/9jEX9dpP6rtW2pr+Xn2P7VbbTf+iPrV/zzskAAAAWYoQlibhANasLYv36YDUEahkDGCzR+v+6Tna99IWbdvV+bi5qxQOYrsatH5Xg8Jrwm7R6LP79OPH45eBLlWUSOd2x7l4P6tlP6lRR6g52z1QhEXC2vlP9OxPouEmfKzAUBkqGdBXOuvTX3/3euntGn19v8KbWdx2vR4uPKsnmzsDysdv1+jbkRASDSCdVbjI+Rrr9fWfGMPLF7TydI2W7b+oJ1+qkRQJatekIXTFKvQpR1LObWNVsO8P+vp/XIyMqVQrK6OBKvI6qvvr9OKUSIBsvqgWSQWR9WVdXrvzrWowOfWVhxukGfn6b1GmBgAAyFZc56VFjgqvkXTi03AAk6Rdzfo4KF2dl9PRZtqEQp2r3dcRwCTpwFt1Oue/TiMnOD3nPP33NdJV9e8n+KKG11V9XGcWwKS//ZtIADMGncK+KpBxLVZ4up6Kr5FiqjwdCq/VtyMBzHh/OIC0dwSQv/2bSAAzBMLodMmu0w4jUwQbzqY3gCm6KYekxvpINc6kzZTScAAzvk6VebpBxtfpos6cl3IGGDcSuUaVxRbPo+mUrlKJLqUwJfFSRYl0rJZ3WAAAAHoortPSIqTms5IGXaeRao5Uwgp1g186viuaLHKU55euHnVLlymGUXmDJe3qfjy+G/TfVyduFd2U47BpQS0SEPbFBIRCn3K6PCYc5NRY3zWA7a8PV8Qk3TolTzk6q21dAlps/+HbUql++V1ju7Pdp+p5vSmHzuq1aDCsLNUvb7smHMoiVbBbS/pK/a/Xfd+9Xvd1PPKi9rxSY5hmeVHvNVzUmJK+ulXSe5JunXK9btBZvRYn3KXi0uzdahsi9dsyXgNqXe8eAAAALiGEpUlLa0gaVKgZa2doRuTYudr3u67hUsz6sJR8rM+dS9zKclOOaEA7aAwIffXwuGuk85/ovWZju/jVNCm6u+AnXYNUpFL0cTRIRTbaiF0fZira1qNNOdQoVX43uvbsrF77SU3nc4msGYut8pl57/RF3TfapxJJ73VUB/+QYNfFNn3OYmOVeK7cOF4DFPmMuJt26+p/ZV0ZAABAT0QIS4tCTRqV033jjC5Cag1Kg/NyJLkRwn6uz539f/Tn0lv032//PO7Ft9V6JFOV14c3xWi8aJieGFsZs+MarbztGinJ3Q29+9yuyHTND+u17D+i677a7b9esZrbFVKeigqlv73lemnfH6yDWyBff9Yp9U0ihEWxrgwAAKBn4xotjfoX5FjcG9K2Xc3SoNFasNiqXbht5/TG+K483CBdPVyXAvHbNJy5KPUPV2bM9VXFiMgapspS/fI26ePGri1sB6LiPP1tpM+H50d3ZjQ8bn+rPlZfjbnlmgQdhStKUl8VJfq86vK5WvbEKq14YommJOzVRJdt8C/qyf/ziUL9r9e3jR8Q3XxWh89LN4y7Vrcm6q/5olrUV2PuDm8q8mKCaYjhzVVO8YMJAACQxa4YXjnuL3YbD8zP17mzZ3Xp0qV0jsmRnjgmSZGdD00Sg3EL+njtYttI6tgh0d95pHul7R908cGv6MKx/9SAjf8zzsBit3zvOh2w65brZ/XaTz5R0fwvqKIhZsv4uLsrRnXdEv/jt/9/9u4/uKn7zvf/q51kL7HlBBvbSiCY+McNJHZMTCEJaYhJjFm4Q/dmJ7DdMuk0sLdA7tButhlKfiz5I75LSj3tdruZBuhdSL63w25rMtvv/WYWvgEnuHQDCVkcnND8uMYOdqCxIbaJZYdvy7TfPyRZR0dH0jnS0ZFsPR8znUbS0ed8zpGEz0vvz+ejk3q3ZoFWKbUl7KXYZeythwM2acP2FZotKdC5SzvauhP0MZbV8vHhcxJZNj/2+BL1KdhvG8Mu/T9R4KFFuurQIk1LZ05X/S803CwV/SDBD3YDAAAgawhhmRBajv4zc0iyWqbebfW/0HBzqQp/dn/CH2z2XmiZ+6ggkxlVa57WuoYi9b+yRbuPZHRXNgSPO+4qkhMe0u/+219rbCRRgLaJEAYAAJDTGPWUCbOvleVChaH7P7uQoQAmSV1/oaKzRRp76FX9LsGwxIwqv157vn2rHjcU+L7+QJVu0ohey3AAk5q0rKFIGu3U4RwJYGXJ5oFJurL6rzV2Xa+K0g1g0sQy95fvfyj9tgAAAOA6KmEZUv7I3Vpbb57rNaZTL7we9btgmXJl9QmNyoWqSsrMw/Wslp13V+OmVi2rkNR3UNt2tmdwT4lFhnTaXPnR/xMFHirVNDcrV/W/0HBzcObf1Z3/IN+rP3OrZQAAAKSJEAYAAAAAHmI4IgAAAAB4iBAGAAAAAB4ihGXAjNJSXXUV69IBAAAAiEUIg2cam1YmvA2YpfseyeTznbQdb9tMfgaStW18fCp9Ft0611bbp3KevDzP2f68pCvb+wcAL1GuQVaZ/+h2tB/IUk+A3GXn4tTrz46TC+ZEfbPbTrI2rB6Pd3+2dLQfsN2nbL/myfafS+cVACYjQhiywupChG9BkY50KiBOLvCtKhuJLq7dCAK5esFr9Rl2+rlOdmx2zp/V+U/lvLsd2sLHbmcUgHm/ds5tJsXbV64FWwCYrAhhea70tpWq1Ul1vDMQd5uCyiVa5D+vE8fPaNxh+/EuyrJ9gZGcX7VNC1SqgHqPHVWf0wPPmHC/wqz651PFXUtUafiZuotdB3T6gmedzAq331PG5xv/2+q+RAHM+P9WfbVbDU4UZtwIG2627xYnr2GyEBNuL9k2bvTFuC833peJnpOsvYLKJVpU5dN4z1GdGPBr0eKbVTD2oe1/z+180RDZWbWh/QGV3rVElYW59m8oAOQGQlg+K6hWZXlAvcfiBzDJr8oqny52OQ9gkvUfbvOFq6cBLHSRMJ4roaRsgRrr/bH3W14k+VRx1wKVDiYOzaW3LVGlPtSJ9tReM9tcPpdOKlm5FNiTvX/jhR23qkbmylyqF/jZ+CIk3r7NASZRH5PN3XKrShZvX8Z+mttvbFppa26Z00qsk76PB8Yk+TQeCEjjhRqXVJCgP+Zzn+yLBtPOgu2PBTSugMbHJBVabzpZP+8A4BZCWB4r8M9Uwdh5XUx0pV42S6UayEhgydaFnz0DOu1Zv2x+U1zgl78woN6uxKHZX66UQ3O2uTG8zfy8VCo88S6S4w0ri1f1yEVuDvt1a/EKO1/WJHqucbtMhEon1ft4x5HseXb368qxjQWi/n2IV9216o+5LzZ2pvE4/xi59XkHgMmIEJa37FS4fKqo9mu856guprEnO8NocjeM5ZDC62K+wY5R4FOBNCkDWKa4OU/LjWpKOs91+4I03c+dmxfR6VSsMhZWFBvuknFaqbN6jnGbRBUj58c2ptExGYYzJ5botbDzuo4HAlK5wy4CQJ4ghOUrOxWuUOVlYCDg6q6dVw1i5ziN9xzViV5zv8zbDeh0+0ldVGReRFhB/Uo1Kna72DlXxseCSm9bqdrC2OGCwX0ouqplHm6YZCihJ2z1yY1zmR3JLg6TXbzGG0rmVgAztpXOnKdUGI/Nqs105ky5wc68LrNE59CNyli65yDVSliy59kO5BdOqqM9fCOgvuMH1GexWaJhsvZFjyAY7z2qjt4UmwKAKY4QlpeCFS4NJr5YLq0OTrBOOFzRpngXs3aU3tYgdR1QR1SwWaLagHEuUig8jRnnQvlVe5tfF98ZiFwMJJ3HFLmICIcqs4ufDEj1N6uy7IyhDZ9K/T5p8OREAAs+f0yn2w+EznMw2DTe5iSImUOhVLl4pSrDNwZPquOdsZiQGhWMDPPL7PXJrXPpPXPIiPd4IvGGxBnbMN9nfp55n4n2ZadPdi647bTh5NizIZVKWLLt3VgYIx12h2w67VOmjsH4+Yk3/BYAkD5CWD7yeG6R+cLYzoRs4wXGxXeORm944Zwuyq8Cn0+6EKyGld62IFjZi6pODej0O2l23sqFD9U75lfl9X7pQugcFvjlL5QunokEmeBwT+NQzoD6zgyosj5YhYzc74sOVpKhOmX4ZrlsgRrrCy3nj018u50wGNnrk6fn0kWpLNoQ5nSOjpOqhFtzXNIdGpaJi3a35oSFn5fKkMJEQSGd4aJmqVbV3KygZopVhTRZICaQAUB6CGF5yE6Fq6Dy5rQX5Ig35MnxHJ3wssemuyPd96mgUNLgOY+GwQV0cSCgyqpIcAkucvJh5HyF5mZFD9WLPL8gauKWR0s42+qT1+cyWjoX9VbvHzerIJm6gM7Fi3K7MrGQitU+kj1u1YZVpdJu1TFRNTWZZNWjdAK7GwEzl7gZ4gFgsiGE5R07Fa7g0Lrxns6MLMghObigDQewwdjhckkXqcig8d4PdbFqgfxl0sULofM1MBBzTnPx97lysU9hubxaWrb74cXQMDeGyaUi2Rw5N4ZaOu1LvMeS7SvRl0zpLPKRySqa3aG0br/ncvnzDgCZRgjLN1lckMPI9oVI4XUqUEC9ZxINnQz/Ho1PBYoNQpkxoIFBqfZ6vzTmk79wQL3GhULCv5djGDKZdbb6lI1zGeTlAhWpMr5nvR6aZWdomNuLSHgtnQU0jM+LdzFvt6qWbB9O+pjqMEu7MvmaZXI44mT4vANAJhHC8oq9JedLq4OVp0wPj7P1x3XsksblV1GhQsP3IgtVGLt38cyHGl98sxbdFoiumN0mnTYughEKIqXG+VwpCi7QMUsVgUIVDH5oOqcD6u0JaFGVeQGRbLLXp2ycy8kgnXAw1WSjKmPnOW6FUSvmAG53rlqyYZaJtonXprENAMDkRAjLJ7YqXOHhit5cVCe9mBs/o9M9M7XIMI/pYtdR9VYvkd+03Yn2gGqbFqixKXxncLn0aAM6fexDLVocu91FyWL+mU+1oQufmGXxL3yo3rElqqwKqPdY7Pka7z2qE1oS1XdJFkvCWyzMMRa7BL4bbPXJrXOZQ9wIDakOk7IzzyfdBSis2ss2u/1wK6TaXVQilSqUk2qWk2CVKDw6GRrq5WueK+8vAJjsvjCvbuEf7W48o7RUl0ZGdOXKlUz2yRH6ZF+837cyiixh7v6FdLw/3vxRRzxuDE1Lta1E2ydbOc4pOwHMyeOptOckNKUzFC8dTkJPsnBr9xyl+9qkum2m207WhpP3v1v4WwAgnxDCMiAX+xQexqeEizIEfzPKP2D1Q8gAAAAA3MBwxLxh+L2puAKR35sCAAAAkBFfzHYHAAAAACCfEMIAAAAAwEOEMAAAAADwECEMAAAAADxECAMAAAAADxHCAAAAAMBDhDAAAAAA8BAhDAAAAAA8xI8156EH59ypb1YWSBfe1YrTF+JvWFqng3VlkdvjPfrpm2f1Uor7bWl9S6s1T7ds8aXYgltqtOaJjaovkvpf2aLdR7LcnQmRfoVZ9a9qzdNa12DYqO+gtu1s96aLUX6vvXtOqaxjoVa96G6bdxVJGq3S99eXaK9bTQMAAOQIQhisFczR/roy9b37mjZcTL+5dVvPaPVNs7R/TSYDWCjEDGcrlJg1acP2FZodc/+ouvY8o7bu6HsbN21UvTq198l96onX5NLNWtcgde3ZEvN8tzVuatWy4k7tfTZef67Wuo5Zem/VW3pZ7gSxltZTuktV+v4awhcAAJi6CGF56KWzb+ils4m3ebDsevnGe/TPLgQwfeO3+u5C6fg/3qBtLjSXvm61PbtFbR7tLdC5SzuSJqYmza2Q+l9JEMAkNc6bI/UdzHgAs+3FG/T968f13VW/VcuL6b6+ATXcJJ15mQAGAACmNuaEwVKFr8CllgJ6edU5ffZWhdb9yqUmp6Iav4qTb6Ty5Bt5bu+OCh0fPafVrYFsdwUAAGBSoBKWRybmgoUEet/Q6rPjmd3pN0ZVrVnav+PquJvEzHEatR4C17ipVcsqJjaKDOmrWaut6xs0MdCxaIVatq+YeF5kXpV5zpXFsMClm9WyvCT2/tA+ZKxqmfcbp9+estunpZvVsnzOxM1Itc48hLJB67Y3WGxnFB6WOKC99/oI2wAAAEkQwvJIZBhimXYvrVOJeQPzQhyq0jeXVumboVupzA9rqTsnjVYlnOO0Rvu07cnwhX0wBKzbNGCY1xUOT2d1+Mnn1BG+b9NaVXXvU0/3Pu14cp+SzwkzDEMMha0YR95T//IVql/WpLbuSBtVDTXy6awOhwPIRFiLzM1q3NSqdU/IQRCLXYjDt7xVLctDN0IBSuaQGhUyDUHSZp/Code46EfVms1aU/Oc2rrbtfvJ9onnJp4TZvBikc6sOqeySkmEMAAAgIQIYYi4+K5WhC7K/6b2Pv1pYXqrIUq/140zpM8+KIo/x+fIc9oRdUe7PuhbodnFflVJ6pFUtWat6otG1bUnHMAkqVttOzMxMapdhzu/rHUNt6hR7ROB70s1RVLfv0cC4OI5CnTuiqqWdRzu1F3ra/SlGqnHcL+vYaNaGoz7CIdJQygMVbCGrVZrbHtG29pC+40bMm32qWat1jQUKdC5K2o/PW3PpVnB+0+6MCrdVReQlOLiK+GqqWsrLQIAAOQmQhgy6P9TWVGybWKrQZKk0ch/zp5RJI126j88Woyip7NbgYYGzV0qdRyRVHOHqopG1dUWDj5zVFxkFa6Cim+UZOirvYU50mWzTzeWyKdRdXXmysoekr7xW7236pz00TzdktHVMwEAAHIDIQwZFKyOlMV93GqYYXgYnDc9tNS9T8f7GrRsXpN0pD04FHG0OyYEehOunMl2nz67+J+cP+nFG3TLizcEw1jbgI7/YzXzygAAwJTG6ojIoKv18afStXNHtc7y8WD1JtB50DDMMFb/p6NSUYnF721lTsf7Z6WKW9QYGorYf8w4L+qshkcl34w5CVrwms0+fTykgIqClTFXBaueFz6JvwBLUi8W6YyGg/PKAAAApjBCGDJq27uzpKJh3Xuv1aOxwSF6BcSgnrZ/V7/maNkTa1U1cW9oYY6oLbs1OKxQeErTkffUrzmau+YOVRWd1QdR87S61XbsrFSxQlvX1KS7J5fY7FP3Ph3vk2Yvf1rGzYILc0RvGgy/wflkSX1jVNUq1oXelDoPAACQVxiOmEf+pvY+/alxbGDlnTpYKUkX9P8eeVd/n4mdhlbNu+srAelX5vk+3Wpr61TVesNqf30Htbfzy1oXdeHfrt1PntWaJzYalksPrgpoXkyiY+culT+xUcu2t2pZ6L7IKoDm5del+vWtqg/tN3qxi/ACHQ0KdO6KrdQdeU7btFkty01zsCyWhI+dp2WxNL4bbPapY+cW9a95WuvCx67QMEZTf3rantHhGa1aZt4upuO/197G4JwuhhECAAAk94V5dQv/aHfjGaWlujQyoitXrmSyT47Qp0ngG7/Ve6vGmeszRa3bekbfXVig/Wtu0La0Wgro5bb3pZcXahUrJAIAgCmM4YjIvBdv0P6PhnXXt85or+WwRExa3/itvrtwWGdeTjeASeGFXKobh+LMIQQAAJgaCGHwxLYtC4NB7CuBbHcFrgkOQzzjWuXqaq1bP09ninr03ba39N4ewhgAAJiaGI6YAbnYJwAAAAC5gUoYAAAAAHiIEAYAAAAAHiKEAQAAAICHCGF5YkZpqa66ip+FAwAAALKNEAYAAAAAHiKEAQAAAICHCGEAAAAA4CEmCSGLVmvW1o2qGD6gY7t/6MH+vqO5LSt1zdu79PZL+z3YX2bVPtWs5und2relV4Nxtil/5G6trR/ToUdO6bTlFov19OJHdMsnz+trvccy11k7lm5Wy/I50min9j67Tz3Z7U1EuF9hlv1r0obtKzQ7spG69jyjtm6vOmlQ3qL/XT2iHxz7gTqysHsAAJAcIQxIVXWrbn/4dn1+qFkf/CrbnUnN+tse0UKd0g8yGcCWblbL8pLshRKTqjVPa11DUewDfQe1bWd79H01a7V1+Rz1v7JFu4/Ea7FGa55YodlWz3dbzVptXd+g4UT9Gfw3vVX9iB5b/JhEEAMAICcRwoA81Vi5Uw/4z+qXh3PkQv3Ic9oWN+i47awOP/lc0uOuaqiRb7RTbYn6VXOHqopG1dWW4QBm2zE9c+wm/WjZSm2qXKyObFc4AQBADOaEAfmo8DFtqi5QT9c27cl2X3LY7BkWFTOzG0vky3xXHPpnPdp1VoXV39DThdnuCwAAMKMShqz7/NM+XfPgv+r228OXsn36YNtfaSh0q2TDIc0tfltv79iiz0P3BbcfitpOknTvP2lxc0Wk7STzvyL7jd6nuR31R+atRfdVuqb5kBY3h2/1xfYpqULd13q35huu5C91va69z49Fb7Z6vh5tKo++L2Bq6s5KrXu4RtdF3WlqR1Jj+X9W4dgp/Wu8yWSq0ZonNqrekEECnbu0wzyeMDQ8bqLrhiF5jZtatcxwCuvXt6o+fMM4r8o85ypmWF+oL8Oxw/2C+4iuapn3m3gooTfs9cl8ziPHZR5C6VveqpblsdtFGfw3vTX2iBZWfU1655/dOxgAAJA2Qhiy7prbN+r2/gM6tu2HCi/WMXfDdxwv1hEOR0OGOVrXPPhPmlW9X+fO2Ns+cv+QPtjWHApTwT4t3iAd2/1Dff7Sn+vYS3JtTljtU/Ol/Yf0ozdCd6yer0eb7taDqw8pnB+DC2xIp144pNfeCD+vWc3TDQ2FQlp/+yHtNT0v2mI1Xl8gBc7HHY7XuGmt1LZF28KZa+lmtSzfqA0XDOEhFJ4Cnbu0LRzOlm7WhqXt2n1E6ti5Jdh+sjlhE8MQQyEkZoNu/Uf3qOobvqw1Ne2GNpo0t0IKdB4MHYchrD0ZCms1a7V1fas2yEEQM4dCNWjd9oaJW8EAZV6IwxQyJ4Kk3T6F2hvt1N4nw4t+NGnDpiZ17GxXT9sz2tYme3PCJhxTxyff0MLrZ6pRyo0hpwAAQBIhDLmg37g64n6dO7ZSFc21KpHsV5SqWzX3dp8+f3tXVCD6/KW/0jmLzUs2HNLc2QH1vdBsCmjfUcXtPg0d+nPDvlPsk02n/+716JUL9/9W/U3lurasUMEqVrmW1BfqUtfrEwEsVqHuu7Nc+viUki/8eJNKCqWeM/GrIx07n4m+48h76l8+R8VlNZK6JTVpw/I5Ut/B6OrYkee0O9nuU9DT9u/qb1ihqoYaqTsc+G7RbI2qqzN8e4Xqi87q8LOGaln3Ph3va9CyeU3SEWMVbY6WbW/VMsM9E5U+w9y0xk2tWlZstRpiu3aHQ1WikGmzT42bVmi2zuqEvDbHAAAgAElEQVRw1H7atXuns/Nk1jF2QY8V/mc1FkodsQVRAACQJYQw5J5zQ/pcNbqmWpJFBcvSrBJdo4D63k6+9Pw1t2/UXElDh/48tkJWfYOukXmIYVjAWZ/sshxCKF2aeLxQ12pMH51MdBVdqBKf1P9G3PGFhk1nyi9pINE25mGGIROjH2v8KpbU/75Xi1G064O+FVpWc4eq1K0eSY3zgiEwHHyqykokFcWEK0nSqF9VkiHg2FuYI132+lSj8mJJfe9RrQIAIE8QwpB7ZpXomgw2//nbu9Q3Y6PmNv+rZp2zCGJSzBDFjAkHsI9P6Ud/Fw5Q5Xrw+fm6NlP7HDuvAc2P/3g4gEXNzQoOlyvOVJ9s6DjcqbvW1+hLNVJPd3AoYv8r5hDoTbhyJtt9uqCPqYIBAJBTWB0ROeeasuCgv8+dVJzODelz+eSbZW/zod271BfwqeLhf1KJ8YEzv9Xnkq4pW+1g52mYfa2u05hOHU5WwSpUyezo2+XTY7cKDmGMKCuxWhrvIw2NSVX+r1nv6sYS+TSqrsMJqlzdAxqWQsMTPdL9pnpGi4JDEpfeotmjnTpsmBfVc2FIUonKPexSMvb61K3BYUnFwcqYmxoLy6SxEdeLtwAAID2EMOSWibldBybmXn3+aUDyRapj5tUJJUlntqivXypp/lfNqo7cHVyYw2pH+3VuxwENqUJzW4xB7IfqezsQHLJ4b5K+hgJbybzvJN6uZq22bm9Vy/antcZ8Md7/mS5FBaxgFSwqb70xqI8C0uw7KxVcGzF2NUVpUO9/LF1XX6Pa0D21TzWr+UarDh1Txyfjkv9Wrbd6+OMhBVSk4onnxi5CIbXrcOeofA0btWGp4e6lm6NvG9qrakg3HQUX6PDV3KE18+Yo0P1m9DytIwfVNVqk+vWb1Zjmnlxjs08dhzsVKGrQuk1NhnuDC3NECYXf2fNM91tKvgALAADIji/Mq1v4R7sbzygt1aWREV25ciWTfXKEPtmTi32SwgtkRN8XOxQwuDphRTh09B/QsfdrtbhZMcvBmwNa9BL139HclpW6xnhfaIXDaxRQ3wuRoYmWQS9qARGZnh9msUT9xGp7o5aLNwRXMIxUrPrbX9fQnXfrph7jMvXR4ay//ZCOlt2ttVW/1b4tvQrW0aLD2aWu17X3Qo0ebZIOPXIqevGPwsf0z4vnS2ee19csfszXvCR6/yu7NLx4o6q6TcvUJ11ePs52hiXqzfsybGRxvsKBMN4Qv9il9YP9j6wmGHd/Fn2PvzCH+dgSrP5oo0/RxxYW5xhj5uvF2a68Rf+7vkxvHdukZxiOCABATiGEZQB9wmTQWLlTj1Vf0C8P84PNU8/X9KNlK+WPE7IBAEB2MRwRyFMdvS/qrbE5emBZi/WwRExSi/X04pWqGjulnQQwAAByEiEMyFvH9Myx5/XW2Bw1Vy7OdmfglvL/ooU6pR8c+wFzwQAAyFEsUQ/ktWN65hjVkillcJv+zMbPxQEAgOyhEgYAAAAAHiKEAQAAAICHCGEAAAAA4CHmhOWJTy9ezHYXAAAAAIhKGAAAAAB4ihAGAAAAAB4ihAEAAACAh5gTlk++8Vu9t+qcJOnMywu16sUs9wcAAADIQ1TC8smLN+iWNQt1y8uzVL3qjPbem+0OAQAAAPmHEJaPXizV8dFh3br499nuCQAAAJB3CGEAAAAA4CFCGAAAAAB4iBAGAAAAAB4ihOWlq/WrD4p17cKLasl2VwAAAIA8QwjLU3t3VOuWf/xPWt72lt7bM6R12e4QAAAAkCf4nbA81dL6llbPqNL31yzU3mx3BgAAAMgjVMLy0u914wzpsw+KCGAAAACAxwhhAAAAAOAhQhgAAAAAeIgQBgAAAAAeIoTlo3tHdWuRdOGTq7PdEwAAACDvsDpiPvnGb/XeqnOSpM/emq9VL2a5PwAAAEAeIoTlkxdv0C0v3pDtXgAAAAB5jeGIAAAAAOAhQhgAAAAAeIgQBgAAAAAeIoQBAAAAgIdYmAM5o7FppTraD2S7G44k6rPT47HafjKek3yWyddrqrwXUj2OXP98pNKXxqaVSbdJ1qab5yBeW5xn99tx43xOhtcLQHyEMGRcsj8Ixj9syUKNXXb3l25bQLpy5fPh9HORqL2pehGYieNy898qO8+ZDK9LLp9nN9rpaD9g6xin6ucIQBAhDBln/oNj/kPl5I+Ml99W2m3LvH06fzSt9pfO+YJ3wq+90/dArnw+7HyjbvfYUjkPdmT785Gp43JbKkE9l44rl89zOl9WmJ9rvB0+ZqNkgS8Xzw8A+whhea70tpWq1Ul1vDMQd5uCyiVa5D+vE8fPaNyl/Wb7j0c6f0gzIbPDSnyquGuJKscSv87R/KptWqBSBdR77Kj63Hrhpyjj6+TGBWS2Px+ZZvX5S+WCM9cuRJ0eV7zneC3ch0QhIJe+DMrmeU6nEmb3C4xkJtvrBcAaISyfFVSrsjyg3mOJLsz9qqzy6WJXegHMi2/E3a4YOOlLvD9+5m8680npbStVW/ihq+E9vlSCpjusgoDTIJZrnw83OAlNuRBE7HL7uNwejpgqqyGl4f+P95iX/YnXF7v9ces8p3vsqVaXzXLt9QLgHCEsjxX4Z6pg7LwuJrpCLpulUg3o9AV3953oj0IqF66ZmDuRqC+JKh/GYWWpDA9LNmTFGwM6nWeh0anw6xLvNTEOL3JzIYFMfj7sDPdz+g27nTlvTi6Qc+Pzkf5xwZ5cOs9u7Mf494L3CJDfCGF5y06Fy6eKar/Ge47qYgp7SHSx5sbiAulyczEBt/+gTvZqwVRmDlZ2ApNVGMvVz0eib+kTVX2TMc97M39pkWofU+mLm9I9rlz+XOdSSMjWeU7n9Un0WTEPKUz074mTY8yV1wtAcoSwfGWnwlXgl78woIGBQEq7SHax5tawjFS5Pck/lb4bvxFN1rf4QkPxCiP3XOw6EPPajgfGgvP7qnyhewZ0uv3kRMCOfkyW2yQXnksWdrMWNd0c6UPPUZ3oNbyfyhaosd4fuT1oGE5YUK1Fi29WQZx+jvcc1YkBf2ibkMIFamxKfB7SZTX00OlzzPfl4ufDDel+4+/G58Oti+h4/crFuX9uz3+yc5xT9TzHOwdO+2T3Sz+nIyncei4A7xHC8lKwwqXBxBfXpdU3q2Dsw8TDFdOQC8MyUvmW362+JmrH/jf9odAzeFIdx0PhpWyBGutXapEp8BRULdGiwZPqaB9QOLjV3uafCD3jvUfV0RtpORh2nB5VZBhjsjlhwfbHdLr9QOh9GOxT422hIDZ+RieOSYsW3xzpZ0G1asMBrDcgKaAT7WeUzTlhmZILnw+3pBPA7LYX7/OayfOW6nFlen+pVFKTVXSTvQfz4Tzb+eIu0fPdlO7rBSD7CGH5KFTh6u1KvCCHv1xpL8iRTLb/WKTyDXuq81ecVFDsXkAUVN4crGgag8eFkzo9uFK1fr8KegOR189YZVJAfWcGVFkfrIimMtw0PeHhsMahrhZ9Gj+jE13XqbF+gWrLjmq0+mYVDJ5UR29q1Vm3pHKBl+qwu2x9PswB0G4gTDZHy247bnw+3OTVcWXr30KrSk025PJ5jvclnd0hum7OZ8yV1wtA6ghhechOhWvi4t7loVxm6XzTn+4fHTfnhFm1me4cMzOr4y3w+aTBD2NC1MVPBqT661QgxQ/RY5c0rpkqSLhRhhT4VCCpoH6lGmMeDET36cJJnehZokX1S4LvyePZr3Qlujh0UzY/H/Ek64+duXJu9MEs0xehmTiuyVSt8KqfuXyek/XJSTDM9Gs/Wd5XQD4jhOUdOxUun0r9Po33dLpeIUk0udrJH6V0/8AkGmro9r5S4cm3moXXReZSZYndOVsFvvBctcLshMYkMjFENdufj1T37UW7ufatv5vnK1f+DcpF2T7PVhUvp/2YCnM9AbiDEJZvPFiQww6rPzxeDL1KVFmwugDO1sWe3W/6xwMBqSp2SGHp9X5p7MOEWaXAVyhpTOPZCDTjwWGSBT6fdCHx+6ygcolqy4M/Gj1evVK19dW66Mlvj9kT7z2b7gViNj4fxn0l60s2ZaMS5pVsn9t84UZ4C3827H42s/25BpBbCGF5xd6S86WheTd9Ll3lWgUfJxPuzW25KZU5YblkfOC8xqtujlpgQ2ULVJus2jmxwEWK1c6JlQuD4cjqvTIeCEjlM1VacMbi8QH19gS0qGqJagMJqmGGhTj6xiW9c1IXmxZo0W0B0wIcAY2PSSpPNsctvHpj/H47kWxYnpMLs1z8fNjZp11T9QI01ePK5KIrqbwPcv3fvmydZ6vQFe+/E+3DjX8r4vULwORECMsntipc4eGK7sy7sRo+YkeqF6HhfSbrS7L23LqIMd+X7GIh2f6NQ2AkBReuaA+otsm4NHtAvccOGAJGOKC4uHy7jaGM471Hddq3UrWLV6oyfJ9hxcbx3qM6oSVaZJ4XFl5AJLx8/diHhlUeB3S6a0CN9QsiqyiGj+edo+q9a4lqDecu9hjHNDomlRb6VFntV18aKymGX4t05onk0ufDiVQuGN0Iq1b/bbWNV6Eu1ePK1HBP477j9dfuc6y+oMpWaM7meXYSrhJtaxXe0pHLrxcAe74wr27hH+1uPKO0VJdGRnTlypVM9skR+mRfsiXDJeOy4U5+G2rySXXoSCrbuNUfrxVULtEi//mE75dJKRTuYn6zLAVevke8kM7clkxul4vnMNXjShQYknF72KtTuRbAEm3n9nmO106ifdh9PycbHp+qXPzcAIgghGVALvYpPAxLCasfwd9a8g+kf3GKycav2rt86p0IXMH3S4ELQSW3hH/Y2umPUAMAALiHEJYBudgnIKnw8L8QNypFuSRY5fUFhzdOteoeAACYVJgTBiDowkl1tGe7E5kz3ntUHb3Z7gUAAID0xWx3AAAAAADyCSEMAAAAADxECAMAAAAADxHCAAAAAMBDhDAAAAAA8BAhDAAAAAA8xBL1wJQS0Mtt76t64vYs7V9zg7aFb9as1db1DRp+ZYt2H/GmRy2tb2n1TZHbZ15eqFUverNvAACAXEQIQ4oK9L077tTtY+9qxekL2e6MI42bWrWsuFN7n92nnmx3xomlm9WyvERde55RW3fiTXMp6GzbsjAUAoMBEQAAIN8xHBEAAAAAPEQIAwAAAAAPMRwxjzw450590/+JfvrmuP50aZ0qQvcHet/Q6rPjkQ0L5mj/HVXyhW+P9+inb57VS1aPFdTp4NLIU/vefU0bLka2GwrfliSVaffSOpUY9menT39Te5/+VO9qxYBfB+vKwp3S22++occN3U6sSRu2r9DsidsNWre9YeJWoHOXdhjG+FWteVrrGooiTx81DV9culkty6XDTx5U+RMbVR/etO+gtu1sjzwvNAfLJ7OzOvzkc+oI3Wrc1KplFZFH+w1ztsyP1a9vVX28fqVgon1TW/H7VKM1T2xUvWL3HTxvQ1HHBgAAgGiEsHxTUKVvLg2GpRUXJZXW6WDdbfrehVCgKa3TwbpCvf3maxMB529q79M375D05lm9NH5Wq4+clatzwpL1SZLK6nSwsEc/PfKuXgrvu26OHgyHw6TatfvJYDhKOids6Wat0T5tezIcyoIBbt2mgeiApTlatn2jAp27tK2tOxS4VmjD0vZgWAkFMIUfD++7whjAQoFm+KC2hfoXfF6rNigYejp2bglu62BOmF3B/oya2kzWp261HTur+uU1+lKN1GN43pdqihTo3EcAAwAASIDhiHlnXG+/aahOjY8qoAKVFEhSgb5XVaZA7ztRFaa/7+1RoOB6LSrIRp/C9xmqcRrXiYFxqaBIFTFtueDIc1FVMaldH/RJKvaryrRp/ytbItt2D2hYUnFZTfD2jSXyaVQ9nZG2Ot4/K6lE5aFNtHSF6ovO6rAx3HXv0/E+afa8JlcPK1qN1jwRDoSmUGenT0feU7+KVL+syfS86OMFAABALCpheWdMA8YhfBOVLUkqVEmB5Ku8UwcrY59ZUiDJ9vA/t/qUDaFKUJHp7lHzdqMa/th4O1JtkyR9PKSA5qiqoUbqDlXC5s2RRjv1H6GcUlVWIqlIy7a3allM88HQl4kVHGcv36jZGlXXnthhg/b61K7DnV/WuoZb1Kh2dSh0bH0HXavSAQAATFWEMMSImSOWV8IBzGLOVrHDpkKVsdkNG9UyMf3srA4/aR4GedbzOVT9r+zS8OKNql+/WYOW+07ep57ObgUaGjR3qdRxpElzK0bVtac9wTMAAAAgEcIQZUxD41KFr1AZKnlNAnNUXCQFOg+mHYqq1nxZs5MsnNFzYUgTwxM9rSB1q+3ZgyrevkLLnlirfkMfbfepe5+O9zVo2bwmSbdodt+/azdVMAAAgKSYEwaDcT3ec0Eqq9P+OckmgI1rYExSmV9/Y/nwuIYklRSG2wmujJiROVwO9X86KhUFF5WIdVbDo5JvxpyJe8yrBDpSVGJYkdHCkYPqGi1S/frNakzW1sdDCqgoOLzRFe3avadTgaIGrXtibWS+m4M+dbx/VqpYoZblc9T/PlUwAAAAO6iEIdrFd7Xi3TodrDPNC4taGCPo70+/If8dd+pPl96nPw3dN7FEvS5ow7sXDO0El5QfqrtTbkWIVPW0PaPDM1q1zLDUe2SJ+m61tXWqav0KtWxfEXyw76D2dn5Z6xx2vKdtn7pqNlrOrYos996ttmd3SU/Ebmdcpl6S1L1PO14pUctyw/DGdJeon2izQeu2l4SGIDro05GD6locXK7+8BFz4wAAALDyhXl1C/9od+MZpaW6NDKiK1euZLJPjtAn5Kp4S+HHLlPvpoBebntfenmhVr3oeuMWgnPoqrp3mVaUzIW+AQAA5CaGIwIZUaNyy4U8QvePDqnf4x5lQuOmYBWsjSURAQAAbGM4IpARkYUv1m1viH6o76DpR5/dV73qLb23SpJmaf+aG7TN1daDP149W7I1HLKl9S2tvily+4yrfQEAAJh8GI6YAbnYJwAAAAC5geGIAAAAAOAhQhgAAAAAeIgQBgAAAAAeYmGODPj04sVsdwEAAABAjqISBgAAAAAeIoQBAAAAgIcIYQAAAADgIeaEZUr9LzTcXClJuubQIk3rynJ/AAAAAOQEQlimdP2FirsUCmOv6osD9+tPBrLdKQAAAADZxnDETOv63yq8VKTf1T6U7Z4AAAAAyAGEMAAAAADwECEMAAAAADxECAMAAAAADxHCMu5nuqpnVL9v+DNdyXZXAAAAAGQdIcwDX3z1fhX/7KIuP3ZCw//tJ/pDtjsEAAAAIGtYot4DV1af0Oj0E7ruB4tIvQAAAECeIxNk3EP6w3Tp6p7XOdkAAAAAqITlgqo1T2tdQ5HUd1DbdrZnuzsAAAAAMojiTA7ouTAU/I+KL2tNTXb7AgAAACCzCGG54MhBdY1K0pAGu7PdGQAAAACZRAjLNP/d+t110lUXfxZ/m6UrVF8kBToPqsO7ngEAAADIAuaEZUr9LzTcXClJurrzHzSty2qjJm3YvkKzJfW/skW7j3jZQQAAAADZ8IV5dQv/aHfjGaWlujQyoitXcudnh3OxTwAAAAAQD8MRAQAAAMBDhDAAAAAA8BAhDAAAAAA8RAgDAAAAAA+xOuIU1Ni0Uh3tBzLalpv7sNMHp+L1zdzvRG3bOT5je16eEwAAAExehLA8YBUO3AoMydqJt2+zZH0xB6dkt52IFzIBAACATCCE5YGO9gOOQpc5gBhvm9tI1na8x52GpkR9stsGAAAAkAsIYR4qvW2lanVSHe8MxN2moHKJFvnP68TxMxrPUD+SBbJEVaZk22eC3aGFqUo1wNmt8oUxVBEAAAASIcw7BdWqLA+o91j8ACb5VVnl08Uu5wEsXmUofOFvDADJhg/auc/q/kTVsHQkCjbxHksUjoznxu25c8wLAwAAQDKEMI8U+GeqYOy8LiZKV2WzVKoBnb7gvP141Ss7VZ54AS1RsEg1bMQbmphsyKPdtuKxWjzDKkTaDZYMfwQAAECqCGGesFPh8qmi2q/xnqO66OKeU63KGMNKsgqPnWF5duaO2elTsvucHq9VIHMSYMPbUf0CAACAXYQwL9ipcBX45S8MaGAg4Npu06lWGf/ffL+dNq0W3rCqNMV7TirbOKlOpVPJMlYIrfqUbjAEAADA1EYIy7hghUuDJxNWuEqrb1bB2IeJhys6kO5wwUz9/lWi4Y12+5cu4zE6mQNnfG4ihC4AAAAkQgjLtFCFq7cr8YIc/nKltCCHmVV1xkn1Kd7zElV93Fh4w+ncrnjt2HnMarESu/0gYAEAACBdhLAMs1PhKqi8OeUFOcISDflLNThkohIWbjfdoZKp7NP4fLsrPhqfCwAAALiBEJZRdipcPpX6fRrv6UxrQY5MBIVElbBUgpQbqyy6NScs3iqQyfZhB0EOAAAAiRDCMilLC3K4xUklLNk25sdTrYa5vTS8W/0yInABAAAgEUJYxthbcr60+mYVDJ5Un0sLcrjJqhImRQcVu4ElXgUsW5UwYx+s9sGy8wAAAMgUQlim2KpwhYcrJlq0w75UVx10+ttdVr8hZrf9eMMa4+0v3jL58cT70WerH2lOFLLcHJ4IAAAAGBHCMsSrBTmMrCo4bgcIq6BnJ4glCjSJwlGml8ZP9hwAAADAbV+YV7fwj3Y3nlFaqksjI7py5Uom++RILvZJ8qu2aYHUdSBBwPKp4q4l8g8c1Yne3JsPBgAAACAzCGEAAAAA4KEvZrsDAAAAAJBPCGEAAAAA4CFCGAAAAAB4iBAGAAAAAB4ihAEAAACAhwhhAAAAAOAhQhgAAAAAeIgQBgAAAAAeIoRNUVdWn9Dw6r/Ndjcmr7oq/fzbt+rx8mx3JJ9M0+MPL9DPH5hu/bD/Jwo89gu5+rPs/p8o8NgJDT92QoH7H3KzZQAAgLgIYZNCoe5rbdajT9lLBH+4/1WNzulV0f7/EWeL6drx7QXaUedeD70RvEjf0zgt43u6Z8Y0SZd1bjDju5q0vv7AAv384et1j9WDdVX6ueP32DQVXyuNDV+2fnjgv2va2UqNuhbE/laXH1okdf6Din+wSL5Xf+ZKqwAAAMkQwqaa+l/oUoNU+LO/0FXxtimfpjJd1vCkCxjBi/QLn8a5SHdRZfE0qW9I/yvje5rkri1QZcyd0/T4wulSX4+2vuugrfJpKlPi1/eq/f+gwkuVGnWjyltfr8/Vq2mELwAA4DFC2JTyt7rcXKmrO/foTwbib3XPLSUqnIxVnroS3eRJeJymWdMTVGQgSeodvixpmmaZCrT3NFap4drL6nx9xFF7wffliN5NGNx+pj/5f07o6jn/VZfrnfYYAAAgN8QtliB95Y/crbX1hYZ7xnTqhdf12huGu+6s1LqHa3Rd+HagW/u29GrQ6jHffD36fOSp/e2H9NJ+Q1uhb/aLLL/Zn64d367STRO3p2nVtxdoVfhmX4+++svIRfPXH1igVRWmJgzb3NN4q75VOaR/fGFE9zx8qxqutW5H5ddrz1/OVGFUQ5fV+S+/0fcMYcq8v7FTv9H6juBF/uPG9iU1/OUC/Tx847Pz+scXPtGvLY44ZeXTdXOo4hbVL/OxKXQe5huGRxq3CR37hVdPRlWEgs+5rJd/3ONupa38eu35yxJ9+C+/0bm7Df22Okcxr8tIpD91Vfr5/bLun/GxTy/rWzIPDZ2ur8yfJvX1JHx9JcWcz8riadJnQ+pNdpwD/13Tzp7Q6B0/0Z90/Xe+SQIAAJMOISxTVs/X2nrp1AuHokOXaZtHmwqjtql9qllrWxUMYm/0au8bvQrOCbtb80dO6Ud/F78MdOXmSunSiTgXpSPa+uOTmgg1I7GBIigU1j47r3/8cfjCPXhfmaEyVFk8TRop0Fe+PVN69aS++q5CF+gz9Xj5iL43GAkoH716UutDISQcQCJVuND++nr01R8bw8ut2vHpSW1997K+98JJSaEL+ekZCF1m5QUqlFR4/wKVnfqNvvrLy6E+VWlHXThQhc6jYs/TnsZQgBy8rAuSykLzy6LOnZ2wkVK/L6v47gVqUOh8hsLWV+o+0a+jXgOp819OTgSlrz+wQKsevl69L3wizYjfv3uMxzI4rjFNV3G5pMFw2zN1k4xVMHvvp3D1USOXbb22V33YKzWX6g+inA8AACYfrl8ypLysUNKYBuMFMBXqvjvLdanrVFRIO324W5d8N6j2Tqd7fEh/mC5d3fN6khc1OK/qo27roWJffyB0wWwMOjFzdUIXzBXTJVOVZ0L59VofCmDGx4MBZHziAv/rD4QCmCEQhodLRg87DA0R7B3JbABTOGhI6usJVeMstmmsCgYw43mqK9FNMp6nyxr+TCosNlaLpquuIjPHEez3dN0kw/kMBcEJ5ddr/XyZKpHBPlkGoPLrtcewSmTU6xcVMoPtfGX+NI2d6jGEOzvvJynpohxmAxd1tSp1JY0hiVdurpTOdvFNFAAA8BzXHxky+Hy3+p+fr+bnm9VsNQxRhSrxSdfV3x01xDCsZLakuAHOyk36w3XJtwovyvGhZUEtFBBOmQJCqMISeU7wgjlm4YV3e4IVMUn3NAbn97wWFdDM7Ycu/lWln3/buN2IxVA4jxfl0IheDgeZuir9/P7gQhPrQ1WweyqnSdfO1Le+PVPfmnjm5ajqknRZv+69rIbKabpH0q8VrhSN6OU44S59prlYoXl0neFK1S0lKtS06CGdCg7//KqxT6FA9vW7C3Shb1qo2mUdhIMh87LFsdl9P8nWohxuubL6hEbnSNccWqTirozvDgAAIAYhLGMG9dIjhzQxlPDhZs1/OHYe16Wu17X3+TEX9veRvngp+VYJF+UIB7T3oisUjy+cLn12Xr8eNG4Xv5omhVcXPB8dpEKVoo/CF9rhgGCaH2bJFCYyJ1Tl65Pqvh0OKiN6+ccnI8cSmjNmrvJZ+fWnl/Wt+cEVBH89UR38TQZWXQwFQ9NcrLsZs2gAACAASURBVOil9iPbWA9FDaosnhasSJVfr7rh83q3eLrumzEtdNzG90ew0hecZxipgkXOk833kyKLcrzmZDVFjeqLCRagieeq/YtUrNBv6d1xQtf9T+aVAQAAb3HtkXFjem3LIf3okdd1KiDNnls+cf9QQLqupDDhs+37mb44Iv2+6m79IcFW5uGASdXNDC6KYRyqFqpkOFulcLp23D9dSnF1Q+9+tys8XLNHW3/8G3V+Jmfny2xwXGOhFQS/fvdM6dRvnC3bbpv1cD7Hr7ehvcf/S4He7bis3uHLKiyepq/fPVOFnw0ZwtNlnRuRNH2avh6qgr2WrMJn9X4Kc9JPf6l+r4sphbCwqz7sla4rTfh5AQAAyARCmGeCww8vDYWrXmN67Y1B6cb5WvdIsiA2psERSTfeoNoEWwUvKufpij/+Nr3Dl+P8tlPYNN18S2iOT2glvI/6orewHYgqSvT1UJuPPxxemdHwvHeH9JGmqeHu6UkaClaUrJZDj1GzVlu3t6pl+2Y1Jm3VQtQy+Jf1vX87r7FrZ2q98QeiB0f04WfSTQvj/FCx0eBlXQgN/1s1/bz2xA0pTdqwvVUt25/WmpoU+h1nnlX08MHg8EhVzJyY4xUr+JzC+VVqGAn+TtqvP70sVVRpVcVldf5b9KIowffTTK2aP01jp85bVPiSv58mGN+X5ddrT7wfglZ4EZqL/AMGAAAmJYYjZkjtU81qvjH6vpihh/tP6Uear0ebTPPCjMvUh5z+u9dV3np3aI5ZUMwS9V1duqb5v2psyd/qT/b/D8t+/bqjR/dU3mpYnt4wHHDwE+05VaJvzb9VP58vBYfhndesh6errDeyKEdwSJvVBXfE//plj+q+XTWxn49ePamXaxZolYw/gDyirf9yXnv+0jwnzGKI4rs9wecb5jJZDgfsHtCwJJ/m6K41Nepo607Qy1gxAdNwTvYovGz+ZX3vhR7t+HaVaU6YVZ9G9G6fdJNFgIl2VsOj0uyiItUva1Jbd7ujfgerk6bhfIal9sN+3fEbVRZHn0dJFkMUDXPLQqsg6lRPzLDRX4eXqf/MImDaej+F+3VeX5lfZXhfBucFWp4v/090eY50zSGGEQIAgMnpC/PqFv7R7sYzSkt1aWREV65cyWSfHMnFPmVV/S803Fyqwp/dn/AHm70XWpZ84ve/MqdqzdNa11Ck/le2aPeRjO7KhuBxx11F0mjpZrUsn6NA5y7tcBge88dD+t1/+2uNjfzfKo7zRYNt9b/QcLNU9IO/4NsoAADgKb5Inmq6/kJFZ4s09tCr+l2CYYkZZVrWXAotVW5nzlDamrSsoUga7dThHAlgZbbmgdVozeI5ks7qOAEsriur/1pj1/WqKN0AJk0sc3/5/ofSbwsAAMABKmFT1JXVJzQqF6oFKQv9SO/Ebatl593VuKlVyyok9R3Utp0Oh/O5KPwj1ZbDKi2EK3ca7dTeZ/epx5NeTkL+nyjwUKmmuVm5qv+FhpuDM9Gu7vwH+V79mVstAwAAxEUIAwAAAAAPMRwRAAAAADxECAMAAAAADxHCAAAAAMBDhLAMmFFaqquuYtFrAAAAALEIYfBMY9PKhLedPt/NvqSzD6vnuNlXu31w+r9U92P8f7vbp2uqvV4AACC/Ua5BVpkvfjvaD6T8XDMnbWVTY9PKmL5aHVuy4zE+bm7T6nY6OtoPWPY71e3sbAMAADBVEMKQFXaDRzLxLtwTtZWJC3471ZV4+4wXVJyGpmSVRrerPYnOYaJ9h4/XSVu59HoBAACkixCW50pvW6lanVTHOwNxtymoXKJF/vM6cfyMxh22Hy9s2bkvE+INp0sUeFIJCF5XdhKFUaf9SBbW7FTp7OzTzjZT9fUCAAD5jRCWzwqqVVkeUO+x+AFM8quyyqeLXc4DmGRd5Qn/d/j+bAcW44W+G9U5N/rkVLLKn9N9uhHqkg2JtCsXXy8AAIB0EMLyWIF/pgrGzutionRVNkulGtDpC+7vPxsBzE1Ohv85netmVVlK1J6blTC3GF/fXHidM/V6AQAAOEUIy1t2Klw+VVT7Nd5zVBfT2JOdgJDti3S39h9vqFu8fZqfm6gfTobvJduPW+xUo8xDCo2vuVmqVbZUOXm9AAAA3EIIy1d2KlwFfvkLAxoYCLi6a/PFuBttpctpGDRWeFLtj9W8Jqs24z0nlW1SXVreyWtld75fOgE8G68XAACAWwhheSlY4dLgyYQVrtLqm1Uw9mHi4Yo2ZWqoV6qrIyZqL9mFvdNqldML/Xh98PK3udxczj5duf56AQAAOEUIy0ehCldvV+IFOfzlSnlBDiNzFcLO8LxMDk1MdzEHNypNTjmpFmWyf3bnebk532oyvl4AAACJEMLykJ0KV0HlzWkvyBFv2GGuLxGeTj/cqqyks5hFLgQLN1ZFTGVfbjw3F84fAACY2ghhecdOhcunUr9P4z2dGVmQQ8qt0OWmdC/g3fgNtUxXfswB0e5vb+Xia07gAgAA2UAIyzdZXJDDKFeWLXdbOpUVq99Ty8SPLTtpJ9XjSbTMfi695lTCAABANhDC8oq9JedLq29WweBJ9bmwIEci2VodMVcvsuNVwLyshBn3ZbXvVCpg5r45PZ5cfb0AAABSRQjLJ7YqXOHhiokW7XBPupWRVFZHtPO7Vk7CgvH5yRYdsbNKn3lb46Imdio3doKW1X7t9MuqUhfvOZn6La9ceL0AAADSQQjLI14tyOFEOkPUEj3HyZLk6Q6bc+tCPdGFv/kHjs1hyK39Jwq18foVL8gkq6TZkcuvFwAAQKq+MK9u4R/tbjyjtFSXRkZ05cqVTPbJEfpkl1+1TQukrgMJApZPFXctkX/gqE70Zm4+GAAAAJDPqITljQGdTloBCKjv+AH1edIfAAAAID99MdsdAAAAAIB8QggDAAAAAA8RwgAAAADAQ4QwAAAAAPAQIQwAAAAAPEQIAwAAAAAPEcIAAAAAwEP8ThimlJbWt7T6psjtMy8v1KoXw7eatGH7ChV37tKOtm5vOnTvkN74Vo+uDd8erdL315dorzd7n0KCr93sidtndfjJ59SRxR4BAACkihCWb5ZuVsvyEnXteUZe5RBX1KzV1vUNGn5li3YfSbLtR/N0yxafJ91K6lcluvNXJZKkdVvP6Ltzs9wfz9RozRMbVa9O7X12n3rMDzt+H7Zr95PtkqSqNU9rXYPL3QUAAPAQwxEBZEC3/qN7VCqq0ZdqYh9tnDdHGu3Wf0ymLwIAAABcQggDkBE9nd0KqEhVDeYU1qS5FVKg+83YChkAAEAeYDhinmjc1KplFZHb9etbVR++MWoaMrZ0s1qWzzE82zz/Jjg/R69s0eGyp7WuoSjhdrNlNho9DM28v76D2rbTOPSsaOIh3/JWtSyP1y/nIu2b2krQp/Bj/TFDI7Mw58yppZvVslw6/OR7mmt4bQIWfTa/Z4zH27ipVctkOCcGVWue1rqabu199k31jDaovuYOVanb8P66RbM1qq5O4/5i3yux5xcAAGBqIITliY6dW4IBI9lcnJq12jrvPW178rnwHVrzxEYte2Kt+k1ze2Yvb9W60U7tfXKfesLbbWpSx852TVxUxwQqRe07eN+QDj8Z6l+onZZN0rad7eppe0bb2uRsTphN4QBmvthP1icdOaiuxRtVP69JOmIIIUtv0Wyd1eFcDWAT5mjZ9hJ17dmi3d3h412rNZ3h1yU0n2v4oLaF5mEFz3+rNshwror9qpJiqlmzZxRJwwPqUbfUPar6huCQxJ7QaQkORew0DEWs0ZonbtEHT27R7tA9VWue1rrlT2vNx5Ns7iIAAIANDEdEtO592hFV3QjP7SmJrWj1HdS2iWDWrcFhTVyYq8avYkn970faCg9PK74xfE+TljUUqf8VYzWrW23HzkoVt6jR7WMzaNzUGgqEsdWs5H0KnZOKL2vNxEi7Gq1ZPEfqey8DK/aVaffS+3TQ8n936nsFTtuLrkTGvC5LV6i+6KwOG98H3ft0vE+aPa9JktT/6WjksZq12rr96dC5qFF5sRT49GxU25EhiVZDEbvV9mx0RTP2vQIAADB1UAlDDPMwtKChmO3CF9phE9U2Seoe0LBCF+2halFVQ418Oqvj4dATCmrRQwzDRlVeIykDVRBfw0Ytk9T/ikWVxWafetr+Xf0NK4LhortbqrlDVUWj6mqLHZ6XvgvacOS1DLRrraqsRFKRlm1v1TLzg6Oh6teFIakhFMwbauQLB63Q+Ry+EPqPbtOQRMuhiLIYAhtqx9UjAwAAyA2EMEQJBrBRiyGDTls6q+FRaXbFCrVsXxG6b1Rde2LncHk99yfQuUvHZ2zUsgTD3ZL3qV0f9K3QslC4UEONfH3/PoWGziWZb/fxkAKqCYbSGVLXK52qWnyHqjSg4iLjhsGqYX0osM2OGYqoiQAWNS8tNPwUAABgKiKEwSA4lExuhInwkLZEF/KhallxWYZKXgl07Nyl8ic2qn79Zg0a++igTx2HO3XX+hp9qaZGqlGGqmBScDhinWKKk5Kkcb395ht6fNy9vfVcGJJUkrgS2T2gYdVIatLc4m4dPvKmtHitvrRUKtaoej42tNfZrUBDg+YubZIqpEBn9KqIwcrbWR2fOgkWAAAgIeaE5ZuPh+IsGy7FzOtS7OqEzoQu5ONq1+HOUfkaNmrD0iRNGYc3uqJbbc8eVL/maNn2zYb5Z0769KZ6RotUv36j6pXJ37wKDkdcYfk/dwOYpODCI6NFql+/OcG8vLMaHi1S1Zovq7j7TfWEjr9+cY2kIQ0az0X3m+oZlWYvX6HZGlWPaShiVOiTJqpgOfJz2wAAAK6jEpZvuvdpxyslalm+US3h0V6GJeo7dh7U3O0rtG57Q+SxV0q0LmZ+VBJHntPhea1aZlwKP8Q47Kyn7Rnt1dNaZ56D1Wde/rxdu/f4tXW9cXhjukvUh9ts0LLtT6s8NATTfp+CC3bUL5+j/mP7ptBvXnWr7dld0hMbY+aFRYZpBgN7fYUm5neFK16+0W71m9oLDkkssv6B5pj3yqi69hxU8foVkW1igllkzprV8voAAAC57Avz6hb+0e7GM0pLdWlkRFeuXMlknxyhT7kpssx7dEiyWqbeTS2tb2m15umWLR7VUSZ+dyt5GFy39Yy+O7dY319for2edA4AAAC5iOGIyIjZM6yHMAbvNw1Xm6xq1mrr8jmm5ewBAACAxBiOiIwIL3wRs8z5xI87Z9BN7+u9tuB/nnl5oVa96G7zxnlySVdRvHdIb3yrR9eGb48Wu9sZAAAATDoMR8yAXOwTAAAAgNzAcEQAAAAA8BAhDAAAAAA8RAgDAAAAAA8RwgAAAADAQ4QweKKxaWXO7dP4eDb6lynxjsXpMabbzlQ6p8mkeqxO3qOpbJdKv/LpdQMAIFtYoh5ZkehCr6P9gKPtEz0vk5xcrCbqm912krUR77x5fV6sJDtGN85PvHZy8b1j3G+uvEZWnH5OAQCAPYQwZE34Is54ERrvoi9XL/jM/bK6oE4ngMRr06oN83a5dHEfrx92+5jOebZ6nxlvNzattHxuun1O9/xn4/Uz7zNX3j8AAEw1hLA8V3rbStXqpDreGYi7TUHlEi3yn9eJ42c07mHfzNz8Vt5pWMrWxaiTC3HzdnaqQtmqHuZSBShegPVy/07uz5RceT0AAMgHhLB8VlCtyvKAeo/FD2CSX5VVPl3sch7AzBeyxgvwVCULFqlcSBorItm68I0XAsxVHLvh0Xif11Uyq7l24X3Fq0o5aTPRfam0kw2p9CPZ624OuFbb2anuEcYAAMg8QlgeK/DPVMHYeV1MlK7KZqlUAzp9wXn7uTo0zs0LcbfCgVVQsntRHC+oZeuc2x1m6qQq58awT3M72Qxkdj4bdl93q22dDPU1twUAADKPEJa37FS4fKqo9mu856guetizRNy+cE43qLgVDsJtpVqxstoul4b8SYlDQ65UqOxyK3znGruhLSxX3lsAAEw2hLB8ZafCVeCXvzCggYGAa7uNd5Hn1QWfsUpk1Wa250zZmddllihoZasyFj6Pbu0zl4Yj2q1aZSOUpXO+k733cynQAwAw2RHC8lKwwqXBkwkrXKXVN6tg7MPEwxUdsLPyWjq/d+TWKoPZlEolLNn2bl5MOw10xsAbbw6TnTbi9cOpeNW3TITVbC6skcqcO/NcMgAAkDmEsHwUqnD1diVekMNfrpQW5DBzsiBHqnNgsjV0ys1haakOKUwUbrwKW/GeG+5DsnCZTxf/Tt4zdiqzVp8vJ4GKChcAAN4jhOUhOxWugsqbU16QIyzeam1TiVtzwuwOKUzUh2TBJpVQlQvzypxUR+3201ydc/K8VCpMifqY6sIcyT5fdj93BDAAALxHCMs7dipcPpX6fRrv6UxrQQ63L+5SHc6Wzj4kby5Skw0jc2OoZbqM+0gUzuL1I1vDEa3mHlr1PxcCpxN23xOT6ZgAAMgXhLB8k6UFOZywc3Efr+qT7sVmti9W07loTjYnyO5FuZ25e6nI1nDEXA4i2ehXrp4LAADyyRez3QF4Kbzk/IfJF+QY/FB9Li3IMRVl8kI21QUnwmEjE31LNF9tMnCyyuRkOaZEzFVLAACQW6iE5RNbFa7wcMVEi3bYl6iq5fRi1+5wtlz5pt9uP9y66Le7EEaiylCiClomJGo72XlJ9Hiqi4mEn5tKv1J5P6d7Xp28XqkGzFz5PAEAMJUQwvKIVwtyGKUydyhRW/HEW248E+wskmG3H6mEhXj3xdu33VUXUwlgqZ7rdOaWuc3JqpRuvF7x9pkKcz/tvl7p7AMAAKTvC/PqFv7R7sYzSkt1aWREV65cyWSfHKFPdvlV27RA6jqQIGD5VHHXEvkHjupEb3bmgwEAAABTHZWwvDGg00m/yQ6o7/gB9XnSHwAAACA/sTAHAAAAAHiIEAYAAAAAHiKEAQAAAICHCGEAAAAA4CFCGAAAAAB4iBAGAAAAAB4ihAEAAACAhwhhAAAAAOAhfqw5b6zWrK0bVTF8QMd2/9CD/X1Hc1tW6pq3d+ntl/Z7sD+nCnVf692a74vc099+SDnZVZtqn2pW8/Ru7dvSq0Hbz/q99u45pVs/mK87d1wdd6t7Gm/Vt+ZPm7g9duo3Wt9xOa3+5oLyR+7W2vrCyB0fn9KP/s7+2Yu2WE8vfkS3fPK8vtZ7LHJ34WP658XTdejwNu2J+9zg61DWsVCrXkxx9wAAYNIghGFyqG7V7Q/frs8PNeuDX6XfXO1Td2u+urXvESeBxalyPfj8fM2OuX9Mp154Xa+9kbEd29bSekp3qUrfTxDAvv7AAq2qGNHLP/6N/peHfcu41fO1tl469cIhV16L9bc9ooU6pR8YA5gkjf1Ahwb+Lz2wrEWKG8Su1rqOWXpv1Vt6WQQxAACmOkIY8lC55t0o9bdnMoBFXOp6XXufH/NgT86s23pGq2+apf1rSrQ33kbl1+u+CumjV3umVgCTVDu3XPr4lCsBrLFypx7wn9UvD/9AHRaP73nned3oe0QP3PY17Xnnn60befEGff/6cX131W/V8uIN2pZ+twAAQI5iThjyz52Fujbbfci2e4e0aeGwzryc5GK/vECFuqxhL9JqQgs0Y9sPVb/5z1xqr1Dl091q6jFtqi5QT1ei4YbH9EzXKY35V+pH5fGb2rujQsdHz2l1a8ClzgEAgFxEJSzPfP5pn6558F91++3hyVB9+mDbX2kodKtkwyHNLX5bb+/Yos9D9wW3H4raTpJ07z9pcXNFpO0k878i+43ep7kd9UfmrUX3Vbqm+ZAWN4dv9cX2ySVJ5wqtnq9Hm6RDj3Sr3Di3LKU5RbHz06yrZ+btBnXokVM6bdxkZEyDq+fr0aby+NtIWrd4WNeOVmlnkmFv98yYJn02pF9bHVJdlX5+v/Tyj89r1sO3qiGcbPt69NVfjiRu2LGT+vRfvqTiby5V/Ta/3m/5qX7n8h6Map9qVrNO6Ucf3GA4l9bDSBvL/7MKx07pX5O97OFhidWPqXHQumIWGZY4oL33+rTOhaG3AAAg9xDC8sw1t2/U7f0HdGzbDxVerGPuhu84XqwjHI6GDHO0rnnwnzSrer/OnbG3feT+IX2wrTkUpoJ9WrxBOrb7h/r8pT/XsZfkwpyw2KBzXVOzHm0K3QhEFrSofapZzTcO6tAjr4fCS3Bu16Ot5kUvytX8fLkudb2uHz0/Jt1ZqXUPz9eDq50t8FH71Hxp/yH9KHxxv3q+Hm2629ROaH5ZwDiPrVwPPlWu08bQd+N8PTq9W/seOaXB0DE3t1bqQlS/f6975w5Ln/qthyHWVenn9xvLRDP1rW/P1LdCt8KLcgQD2mXVPXyrynp/o692XA49d6YeLx/R99yunv2fn6r7u3+mWd9fqnnf/zud++lT+vT/OGsiJlz75uvR58M3TCHL4lzOX12p028Yz+ViNV5fIAXOxwlV0fYMnNUD/umqluJv/2KRzqw6p7JKSYQwAACmJEJYvuk3ro64X+eOrVRFc61KJPsVpepWzb3dp8/f3hUViD5/6a90zmLzkg2HNHd2QH0vNJsC2ndUcbtPQ4f+3LDvFPuU1Nj/3979x0Zd53kcf7kRbGemQNspo1YKbRHqtRa2VwTMIrDYVRKP3EZ2Fw1ZhRyrJp5ZIQubEP3jCBvxYncv2Zw/yIIaL3J7EA3rpSSAiF7kl1exwqloWyhW7A9KoTNTF5r1/phO+Xb6ne98ZzrznXbm+UhMnJnPfL+f+aLJ98X783l/deg3+3VIGgxLM3XFrBvi/FLddZt0/qCxetSpPQc79etlt6hyfqs6DZWQYR0VjwV05VFpUpFb0vUq1uTquw03+qHjGatTp7d+OLxStfuCzi+bOuw4lZvnaJo6tX9YmOrUnq0R8/cbg2JAp1sCmlM9SUWS4Xt/VVGe1HzYI1OnWvSLU5I0RdueKlNRlE6Ipfk50qSc4Z93BhVQzoixViau2qqKmlzzD9veU9Mf9xre2Kv2jXt1+cl6la2rV07DerUfsn+uzhc/1B8kDYXyXovKpa1rOUMFbqmlOco+r0iBXgU0R9VThx0kwk3q6pMWVPklRfkzAgAA4xohLNu196hfM5VbLsmkgmWquEC58qvtZOxyT+7cxzRbUs/+n46skJXfolxFLjEM88c3p2SZNkmT1anjkT9t9wWdXzZHBdMkDYWwgHrOGwd1as8T+0ccMmZjjsFQODnye0P/Nrh/6esLI5YVJuSeqyqS1BVr3NSc0LiLVq3oe3XIENB+dEeB3PpO7XFUwa7u2qymXfbHS5L/j+v1+aqtqlher8LKyKDmIPet8knqSM/ZAQDAOEUIy3bFBYpSg0iK/pMvq63wMc2ue0vF7SZBTBqxRDGrhAPYsL1koaWHKWse8v5Edf1z7GHhphxnTAPVFFWVSIFPvhnWNbE0P7SHrDU5M43K82S9ykqki3FWwpIu8I06NCfOLwXVY6NZ5pXumxKaEgAAGPsIYVkutyi06K8/nopTe4/6VSJPsWxVqnpeeVltmx5TyaN/Ur+xkUbzBfVrrnKLVkoaI09JPn9FlzVTFSul08YprbxF0xTQJ+ejfjMx0yZpsgL65IBV6Sigzl5JU9yyXMVmm73lbpZNOUyrZDkqniKp9zv9TxyziW85Yo0Kn1mt4rz+hPaEJd9Z9QSkWt9DUqeNJYnuKXKrS19bhrDQctGub6M/uw0AAIxvtKjPZkN7uxqGglH/Rb/kuV4di+xOKElq/o3azksFdW+puPz626HGHGYn2q32bQ3qUYlmb/mTCober1fbSX9oyeI9MebafEH9kgoq1luPm/mwNv3uX7Xld8/qZzNjHNPMsU6d9UvTls1R5dCbU/XgsqnS118l/wHL56/ostyhZY7hc5k84Pn0ga902TNTD2829jcPNeaI3wS9/0W+NKNPW6KOydGPSnOiByrT1vU5yp8knf0qvs6IV3dtVtPG9eb/GAPY7es08/nVKtZn+nzjWAhgknREh78NSr6/01obo9f6pkuBXuu/u3ikT+XKV1eqy4kAACBtqIRljd3qv/SYNG25Fm5ZPvRu5FLA/j3/obaZj2n2lsG9TecbdGR/5Yg9Wz2v1Onkg29p7qP7FW4u33/yZZ2MendZry9evUVzH52r2VveUturoaWJ/Xt+qpN6S3Mj94UNayBi/L5x/iYt6m8rGGUrg1ADj87Ndap7sU7hKQ11QEzAyMYchi58x1r13zW36GFDp8bzBz/UJ/Pv1gzjV461auexQKhL49CxQg0+ErHzSL4er23RTzZ59cw2s4pLKFAFWs33g5lWyaoKNEPf6eOUPFOsRoWr7pBrRGUs/Q53fqnHy+eornShdrQeiT7QvUF1PqmlKVp7ekm6pp2L26WzFbSnBwAgg91QUVX7vd3BhV6vLvf2amBgIJVzigtzAhKzZlOzNta6tPtnJg9snnqzdqy6VV3vNmrTqXTMbnxZXPqSNpR36e0D0R7YvFDPLnxCtf4Grfg0+rJFyz8TAACQMViOCGSpndtKdLSvXSv/60LEssQp2rbqVrmvfKO/EMBsOdz6mj4KTNc/3rvFdFni2jufUK37nN62CGB65II21l5S8zsEMAAAMh0hDMhaE7Rm7Rwd7WvXTzZdCz1o+aka/edTZZrR1qJfvPptXA02stsR/cuRF/VRYLrqShcO/8i9QXW+cxZVMim8DLH5nVo98FqKpwoAANKO5YgpMBbnBAAAAGBsoBIGAAAAAA4ihAEAAACAgwhhAAAAAOAgQhgAAAAAOIiHNWPMWLxsuQ4fbEj3NNIq8hoYXyd6fdJ1XRcvWx57UIRo8zS7LvEeI9rxkn19wscb7XH5/wEAgMxFCEPKxbqZNN5QW42N56Y+E29ek3Fjb5fZecyuf6y5RAuU0V7Hw+zciQS/VHHyzwsAAIwvhDCkXOTNaOSNcjw3qXarHNnI6ndH+yza9YwWIOINTZFjYr3ONAQwm/i5EAAAC+pJREFUAABghhCW5bx3LlelGnX4046oY1ylizTP941OHG1WMEnn5eZ0JDtVE6vP7S7lc0qq55NogLNb5QtLpOIWq2o42uWUAABgfCOEZTNXuUqn+tV6JHoAk3wqLfOou2l0ASzZN5aJLI2TBkOn+0xSA6UTEv29ozHa4yejMhe5VDU8Jlm/fTT7t0YTMu0uyxxN1RgAAIxdhLAs5vLdKlfgG3VbpZGiYnnVodNdyT13MioBo9lPNNZY3XjHExCiXYfRhrhoSxONx7VauhjrWNGYNc8wCyZ2w8p4+O8kWsOQ8TB3AABgDyEsa9mpcHlUUu5TsOUDdSdwBqsb4/F8k5xqVlWSeL6byDGiBRyrvWPxHjPaeeJhFsiihTSreaWryQkAAMhuhLBsZafC5fLJ5/aro8Of0Cli/S1+rG55yeNT5bIaeYdez9K8ZbOGXgVbPtCJ1tBvvL7/za9Sw3eMY8yWNLpKF2leWUCnDzYaAqtHJQsWqdQdfu1X65EP1BaReo1L4iI53WHP7M8s2tzMvpPImHiC92hCeuR1jrUvLNbvYqkgAABIFCEsK4UqXOpstKxwectnyRU4Y71ccRSMASO1QaNDpwePbWtPmHuW5i2TupsadLhLUlGNFlf/UCUdIwNUdKHg52r5QIcHw5uKarR44SLJEMScalKRjBAVb0OLRMbFOkZ4Hnaqa2bftTKaPWFUcAEAQDwIYdlosMLV2mTdkMM3VaNuyBHL2HyWUkTFKnBZQfmU55bsXgxX6Sx5A2eGqmeSpK4zag0sks/nUdvg+8n63VbLEFN1fRPZ2xXtOHY+Cx/DLAgmO2CNRjL+cmHs/T8BAACSiRCWhexUuFyls1LSkCPSaG5WU1d9CChovDbBZp042BzXEVwez2BFbdbIDz1uSfaXeCZyfYzjzb6faDfA0YSKRETu80pV4xEAAAAnEcKyjp0Kl0den0fBlo8TashhJbLLnVVQsDIubrADqWuFb3WtYu0tG02gs3N+M8naE2YWJKPt8YpXMoNc5HWOdb2sukwCAIDMQwjLNg405LDDquV5JtyEBv1+aepkuWR7BaMlu9cm2U0+IsePlaplsuZllMxlg/Hu0XOmQQ0AABgrCGFZxV7LeW/5LLk6G+NoQmHNrAKTaMvz0d7Mh8LRrfK6mhP+fZEBK9QZ0SMpcH1M6xl1l9WockF50qphVkHDqhpkVnGMNtbsnGbHSlclzDgHs3M4EWDiWeqZ7rkCAICxiRCWTWxVuMLLFa2adtgXLQDEkuznUoUFWz/Qac9yVS5crtLwe4b283YEWz9Wq2+RKsPn6WzU4aZiLa42jurQ6YONqlxWE7EvzLxNvV1WVS4z0SqO4c+svhutXX3kPOxUguKpDFkFGqv52plXKlhVsaz+m48VmI2vCWwAAGSWGyqqar+3O7jQ69Xl3l4NDAykck5xYU722WnPbv68Kzgh3ocq26kuJWuflBPnsjp+rPM7tcct1l68RD6LNYYABgBA5iGEpcBYnFP4uVVqarDYDxZ6uLCvI77KEAAAAAD7WI6YNa4/sDg6v9qONqjNkfkAAAAA2ekH6Z4AAAAAAGQTQhgAAAAAOIgQBgAAAAAOIoQBAAAAgIMIYQAAAADgIEIYAAAAADiIEAYAAAAADiKEAQAAAICDCGEAAAAA4CBCGBLk0nN3LdW+yqJ0TyRunifrVf3MOk1M90QAAACQlQhhAAAAAOAgQhgAAAAAOOiGiqra7+0OLvR6dbm3VwMDA6mcU1yYk30PTp+vdb5vtf14UPctqVLJ4Pv+1mNaeS54faBrunbfVSZP+HWwRduPn9Mes88itJ06pF91Xx/XE34tSSrSK0uqVGA4n505PV25VPfplO7v8GlfVXj5Y1Anjx/Tbw3TtrZCxc8vUWGUT4ONb+irXY2SpImrtqri9rP6fEuHigzfMY7xPFmvsvzP9PmW7bo6+PnEVVtVUdOjlo0vyD905BoVPrNaxXnh1/1q375ZF7+0O28AAABkmhvTPQE4zFWmdUtCYen+bkneKu2rulPPdQ0GGm+V9lW5dfL4oaGA83TlUq27S9Lxc9oTPKeV751TaE/YfM0NnNL9p7tSOydJKqrSPneLtr93SnvC566argfD4TCmvWrfuFftMg9QI+TdoYrn79DFhvVqOiRp6QZVL39Qhf/bGEeACgW/3MY31DQY3rR0g6rXbZUIYgAAAFmL5YhZJ6iTxw3VqWCf/HKpwCVJLj1XViR/66fDKky/b22R33Wz5rnSMafwe4ZqnII60RGUXHlDlbPk61f79vVqPzT48usrCipXObfZP8LEVfNV2PeZ2sIBTJIOHVJ7X67y/74mqbMFAADA+EElLOsE1GFcwjdU2ZIktwpckqd0vvaVjvxmgUuS7eV/yZpTuvTor8ZK1Zfb9dXG+I4w0Zs7WFGrH/mh9zZJjSPfBwAAQMYjhGGEEXvEkLi+GMseAQAAkHVYjgiDgHqCksfjTvdEMsLV7n4pbxLPIwMAAMAwhDAYBPXbli6pqEq7p8faABZUR0BSkU9Pm34cVI+kAnf4OKHOiKnbw2VfKBzNUN7toz3G9YAV6oyYO3zMrmO6qGKV8WBoAAAAGLAcEcN1n9L9p6q0rypiX9iwxhghvz99TL675uu+JUt13+B7Qy3q1aVfneoyHCfUUr6nar5mOvRTorm6a7NavPUqW1ev4sH3jO3n7R1jj9pvX62y8H6vtvfU1HC7qpcbR+1V+0ZJzy+J2BdGm3oAAIBsxnPCUmAszgkAAADA2MByRAAAAABwECEMAAAAABxECAMAAAAABxHCAAAAAMBBhDAAAAAAcBAt6lPgYnd3uqcAAAAAYIyiEgYAAAAADiKEAQAAAICDCGEAAAAA4CD2hKVK9Z91qa5UkpS7f55ymtI8HwAAAABjAiEsVZp+rvwmDYaxd/WDjh9rYke6JwUAAAAg3ViOmGpNe+W+nKerlavTPRMAAAAAYwAhDAAAAAAcRAgDAAAAAAcRwgAAAADAQYSwlHtDN7b06doPV2gg3VMBAAAAkHaEMAf84N0fK/+Nbn234YQu/dO/62/pnhAAAACAtKFFvQMGVp5Q35QTmvzCPFIvAAAAkOXIBCm3Wn+bIk1o+ZCLDQAAAIBcAAAAAABOIoQBAAAAgIMIYQAAAADgIEJYqvnu1tXJ0o3db6R7JgAAAADGALojpkr1n3WprlSSNOHjf1NOU5rnAwAAAGBMIISlStPPlU/wAgAAABCB5YgAAAAA4CBCGAAAAAA4iBAGAAAAAA4a93vCLnZ3p3sKAAAAAGAblTAAAAAAcBAhDAAAAAAcRAgDAAAAAAdlRghzb9Cb976uvfe+rjdLF0Yf98gFfbajR2ucmxkAAAAADJMZISzwgh468EutOPKJVP6E/jA1yrjXvDqqFm0kiAEAAABIk8wIYWGBF7S/QyrzPRRlwAStWVuh5rwWPb7pmqNTAwAAAAAp00KYLR498E6xJtW2aec96Z4LAAAAgGyThSFMoWWJfZe04B/86Z4JAAAAgCyTnSFME/T+F/lS4VX2hgEAAABwVMaFsB0d5yTfYj3rth6381uXlHdJ97AkEQAAAICDMi6EqfMZrThwWAULX9fee7dobbrnAwAAAAAGN6Z7Asm2uPQlbSjv0tsHfqlfxxzt0tfvOzApAAAAABiUcZWwco9L6vg/7Ygxbs3NQanvJrU4MisAAAAACMm4EGbPNd0z+5J0caJ2pnsqAAAAALJKdoawR7q1IC9fR//iSfdMAAAAAGSZLAxhfr3zQLuufFSiNewHAwAAAOCwDAthD6naJwX8Z6N8fk07d3yu8r4yvbRtgqMzAwAAAAApU7ojujfozYVz5JakjgataD1iPu6Rbi1QmZ5fW8BeMAAAAABpcUNFVe33dgcXer263NurgYGBVM4JAAAAADJWhi1HBAAAAICxjRAGAAAAAA4ihAEAAACAgwhhAAAAAOAgQhgAAAAAOIgQBgAAAAAOIoQBAAAAgIMIYQAAAADgIEIYAAAAADiIEAYAAAAADiKEAQAAAICDCGEAAAAA4CBCGAAAAAA4iBAGAAAAAA76f0GQTvZ8fiJOAAAAAElFTkSuQmCC;" parent="1" vertex="1">
                    <mxGeometry x="-760" y="-1160" width="865" height="736" as="geometry"/>
                </mxCell>
                <mxCell id="7" value="" style="shape=image;verticalLabelPosition=bottom;labelBackgroundColor=default;verticalAlign=top;aspect=fixed;imageAspect=0;image=data:image/png,iVBORw0KGgoAAAANSUhEUgAAAnkAAAE2CAYAAAAd74SFAAAAAXNSR0IArs4c6QAAAARnQU1BAACxjwv8YQUAAAAJcEhZcwAADsMAAA7DAcdvqGQAAD1cSURBVHhe7d3f6yXVme9x/wWvvfOqL0KciGhIxPgjyJw2jQlNon3h/IimGx1/XgxOcJzEkIGoY8NkDJhhQMETe0IPzIwc0gYCHgxEEEEyF8oRDwyEcx38C9bZq6rW3k899ay1ntq7dn33ru/74sWuWutZq2r/rM+3au/u68584ZYAAACAZSHkAQAALBAhDwAAYIEIeQAAAAtEyAMAAFggQh4AAMACEfIAAAAWiJAHAACwQIQ8AACABSLkAQAALBAhDwAAYIEIeQAAAAtEyAMAAFggQh4AAMACEfLgcump50e1H6tjuT+1/ZT9S3qOcvdlSfcRAKZCyFuoeNDzsMYmst+zXBLrvKzxiVWfY41PSv21sZrcphyba9d0ncUao9sk2V+rtaTteljjE6veYo1NZL9nGQDQIuSdUt6DYqrTt7q/xqrzttVsMybadpwm5/EsT6E2367btsZ428bwjk91+lb3AwA2TiTk3XzumXDpkQfCzUbf2q0PhIeeeibce6vRN6FmX1YHiLUL9w3r7rrYr6nt+4GL98FqL8mN6T0unVzdtm0124yJ0rh4W6PHSrLfs2yJ/Tm5eqs90n1yLouslWO2bfPaZmxpfzWrDgBOkxMIefeF86sP4PN3WX0bt19YfVBbgWtKTXirBMkmbNb3dxKe/XFIBzh9oNMHv1xdaiuxxul1yerzttWMGeOpHbsPst6zbMn1bzOfVVeqt1j13rYkt+24LttydamtxBqn1wHgtJo/5DVB5mK43epb8wXBXXmCpOus41QmDnnbLGupT9/qZWtdin1e1viSsWNq9bvM51m25PrHzhfbrbpcfU6ax8MaH8m+scta6tO3etlaB4DTauaQd2e495Hnw0Pn7jT6NuYJVu2+1EJeEwSPOOTJdX2r+zXZbi1754msPm9bat+WNZduk2r9mqz3LFtif46ssZYlOcZTn2PVe9sS3ZfW9a3u12S7teydBwBOm3lDnut7dr4gWNIEs9UHfWKfEZwq5HXzrLeXuX/dZd91ndiu3t+eLQJmHLdru27Lrct2a57E6vO21WwzJsqN88wXa7Zlzechx1rzpLZcn6ZrJKvf25bk+sa067bcumy35gGA02jWkOc6K7bT2SwjuKnv1A1+aNHTbbfZB6u/tQmN7WXlXiC19r+bT9cNwudO930jbsta17e6P6fUn5tTs/q9bTXbjInkuLhcIsdpst+zrMW+mlQnx6TlWl+urcQ7R2le3ZfW9a3uzyn15+YEgNNsxpA3ww8umpA0/L6fPefuZ/Lsy8r6TGR7v133aQ8hb+yybMvRdfI2R46vscaXTD1m7Hyy3rOs6b7c+rbz5dpKYr2XNT6SfWOXZVuOrpO3AIAZQ157Bq3yg4sdf8laPEuXCWO7hLymz9pWlOYdc58mDnnpVrfrdd0u1ebItWnecZ65tDFjYm1i9Udj90HWe5Y13Zdb33a+XFuJdw7Pfuia3Lpnrtx6rg0ATrOZQp4+u2Xb9QcXriC5NlHIq+3vCYY8vZ47CI5p97ZpU86lTT1m7Hyy3rOsxb6aVCfHpGXN6kvzaLousfq8bYnuS+u5MWPavW0AcJrNE/KaoFMLL74gWDQqJO0e8nyh0vjeXs6eQl6uLcn1xXbZV5o3N0dSGltrq5l6zNj5ZL1nWdN9tfVcWzK23uKdY8r9yPXFdtlXmjc3BwCcRrOEvCYo1b6T1gQc71m4nC64uebZPeStv29XOZuXLiP3zuat7u/g7F531m+noLsy9kBXq4/9uZrUXpqjNrbWVjP1mLHzyfq0rOcYsz3P2DHz5dpycrVT7EdJrT7252pS+9htAsCSzRDyZvjBRU8Ken3D7U8R8qIu6PUYZ+OaECtqctvVdbXLwYbeeCdrnkj267ra+pj2tJyrtWwzJpFjvfQcabxcTuu5W0saVyJr5a3F6ivVa7la2Z6WS/PGvrGseSLZr+tq6wBwWu095Lkuae74gwvsxjooxrZcu7zVdHuuzjKmNtlmzFSmegzG9m8zX21M4q2LxtR65PY71y5vtVw7AJwmew557dmyff/gAgAAAH3z/PACAAAAsyLkAQAALBAhDwAAYIEIeQAAAAtEyAMAAFggQh4AAMACEfIAAAAWiJAHAACwQIQ8AACABZo35D1xJXznV+9t/PLn4YtW3SFJ+3wM+zpwNjz32++H19aeDI8+rGu+Fh69Jmu+H577oa45GVevXRfCtTNm39rd3wi/++eL4ffJP3wjPGLVWV6+IYQPbgwvWn3binN+strvlc9eNvoBAJjJfCHvWz8P31iFpXueMPpOQhPefh2++i2jTzrakNeFtytnjb6N81dWNde+He4w+qbl25/kxTevXwWlG8JVo2/twe80we4/HzT6XG4K73+wCmRTBb3HbgyfE+4AAAditpD3xR//+rCCkjfkHauHvx1eNM/cSe2ZvnnO3I0Iec3ZsOvD+48ZfWu3hzf+4WL4/d9+3egb40z4bBXMPn/zJqNvnCaYTn1mEACALc0W8m557cDOhi095P3w4czlWaEJgocW8ryh6+vhP//5YvjdX91u9I3kCpV1hDwAwCE5jJBnBS59ebdZjzUXw1d/uZorXkKNXvvRZowaa9U0+yH7JLl/6TJtYm2n8aNwj6wz74dzvz26YLb+Dl3uUutUIa+ZR2wvE9Kay77rOrFdvb/KYNtN4Kpcpo2a7+L9WXjj7nLf3/+t5/t63WXb2vf/Kgh5AIBDst+Qp4OSsg5w7pBnjVPf8+vavvHji722Xs26Tm3T1IWzQpiU22ouS8t98u63hxHc+t+p0z+0UJqANvyhRY8IjXf87MlV28PhfLdun41L86m6Kzp8+s7kNT+2yAal9uzdOrRpKcQ139X7TvjPGPDS5dzuBxq57+9NEdAIeQCAQ3JkZ/J0MGrPom1CVndWzXOWbIKQZ98nVe/ab482JL34s6/123Pfvdv5TF7m+3rNvJtA1wbBynYanpDXnlHzfD+uOUOXOTP3yF/9WRv6et/XawNi9kcaO1+y9e87AABzWFbIM2sydg55bbsV1Ho/Mpks5JXP0tlhbIeQV7zMupnX/+tcT8jzfh+v/KOLNuSpS7nN2b3M5d1o65DXXeqd4Dt9AABMiZB3ZCFvcCYvZ6KQZ5/l25g25HnPhpV+dGEHwDb4fSf8vWjr8X4XMGua7/UBADCVRV6udYWnnUPeyVyurX2nbW2iy7W1UDn83l6Ob//L38nrlH50kQmApcu7Ed/JAwAszWGEvEygs37AUAtLgx8+RKtA1x+30s1XD1r5kNcGRWv7IjxOFvJWmuDmPJu3c8hLAa52Nq+7jNw7m7cKdIMfXqRf4FYCoeOyafGsnPkDi/bsXv6fW5nmLBwhDwBwSA4j5K2kcNa6Em7pgtDYkNfowteaFdCsOrF//f2R7DOOm/6478P+SUJe1AW9Huty6QQhL0pBr2dwNq47S7euyW1X11nbbr+XVwpcxbNy3S9rewGw8sva3X900SLkAQAOyWwhD3Arhq6p/qeLhP/xAgCwTIQ8HKTmu3lG0Gv/cePCr2RH6S7TThXMmnDK/10LADgMhDwcrCboNZdt5T+CXPiF7FgxlE185q05mxcvNxP2AAAnjJAHAACwQIQ8AACABSLkAQAALNBeQ95X7/zT8IU/+bLZBwAAgP0h5AE4cZeeet5s39W+5sWy8brBUhDyAMymdPDcx4GVg/Uyxed1LGueyOor1QPHhJAHYFa5A6j3wBrrNKsuKvVhmbZ5zvUYXjdYCkLebB4Mz//i3XD17XfD5cet/pOy2a/E2r+zL7zdq7n66rODmmXzPU6Tu/WB8NBTz4R7bzX61u4L51cHpfN3WX2HJx1A422NHpvGldalUt9JuPncM+19u3Cf2X9S1vuVWPt318V+zSMPhJt1zQGI+2a1l+gx28yxH+17+6Fzdxp9TtXnrd3GpernzPRuv3C4r6OlIOTtrDv4V0PPXCHv2XBZBJGNt8Pz3xzWX3p11feLy+Gsau95/I3s+Km59ucEnNR+NR+ClUDQHKB3+aBMB4ED+bCtHWB1f1pv7kOBHDM178FqnpB3Z7j3kf59T8w/BJrnv3KAb/7YmOkPCc/+ZMT7aLWPNdU8u9sx5LmeN0LekhHyduYNeXNpQ97rLzxo9GltbS10NgFnpvt3mCHP9zhNz3OGrj2gb3cQ6D7cLzzQhoIT+LC1Dqa1A6zuL9XPdbA+rINVF/KcQXKWPyTGmDHkxfoxrDn2a7eQN+vztgVC3v4R8nZ2xCHvm5fD69XwMu/9O8iQ53qcpuf6gG4OiBfD7VZfURsE2gDZhYI9ftiWDpZyXfdZSuM1z3xTON6Q56ud9f5tGfLic52e712e99zYuV5LfbuFvEMPUYS8/Tu1IW/wHbNMsGhCx7pOXLLsDvy9OYRNINhcpm0Zlz1zl0O7bfQCm97uYL9PIORV96nT3M9N3WYf232WfZLvrOQeFR+n9vGJ+9h/Tb0RLg1qx2gPvrUP9+ZDcudLf/sPeZJ1sBxzcI41mlUXlfraMCHnyYRlVbd5TtJlLpt87taXaY2+RvayWjrbKp/j7vlaz6cD0UmEvNo+dbr7ua4T2222Ifukymsz1shbvTxGblyu3Xps2udbvJ7Wf4z1XzPW+9t6HAZ1+rWbef7Kz5t+/Rqv//V3gtXza2xP77d5BWLwnluZ6XPntDqdIW8VNvrBoQsZvSCTwpk8WK/aXtUBxhGCkux326ztpyAqtm+MH575qoW8dL8yurkGIbhH7INrnzbzyaB09oU3Bo/F4ZzJ8z1Ovbr182c/n6M0H4aVsxmTfU+q+wCf6cM2frCPadd0nVwv9fXEx653oLIfgxTO5GN887mLg+elfDCVcmdmMs/B4HVgjB/UdHMVgpsOnX3dXNYBWdg8Jp59Sm3DusHr1xpbEOe0lq11jzTGO5c/5MXHbXO/2hrjeevNNXxsB3Pr53u9LZv1eTGcsyNC+XpcN/9mHuP1Znw2De/vmPcNtsXl2o4OF20osQKZNkXIMwLdYN52fRDemrNMcs7cWTHjzNLOZ/Kc+9RtJx88N3YPeXeE//juX4f/ftz23p3WmArHmTz9+Ox6P5oPv8JBOmo+NCf5gMwEjD2JB4hcm9Wn6ZrSume+ZHCg6w5Uw0A2tHvIWzHCjZ7Xfs7b528zZ/d8rrbTZwUn4wBtKN0/3z6197u2ncaIkKefX72ea8spzZebx3psBq8l6z7pIGTeb/16adcHQa0ZOwxp3tflYH8TI6wN9qm07fXzbb/uvfuH7Z3SkNcdmNcBqCMOyv6DdCkEKYWQNwgSOihlw1trE0BqZ/KEYnhJSvfPuU+l+60czpk8Ye6QZ36wavaH5nbqIW/MgbKmdCC11rUx40tzNQeYVX9f5cCc4T9YlZ433deuy9eBvc+d9QHVF9xau4c81z65XtMd5+Me5/e0ldo1XSfXc3NYj802Ic8Oy+o10Y2J+zI0fMy8r8tdQl47Vu9LJ227mWf7/cP2TmHISwGvf2ZLH5RnD3krzTa7eZoze73te8Pb/CGvui1C3ij2h72S+et5O/WQF6UPbqtvDDlHbr7SdnTfmNqkDSb9g47rwJzhP1iVQp567o3n2LedEwh5tX2aOOSNfd2UXiNJrab4WlL33/Va2iHkuR7HFe/rcrC/iTvkVT6LCHkn5hSGPDuY6IPy8PJpznQhr+2P22zn7IcK73bmDHnOfXJtp7V7yDv2y7XtQTcXApLmw9F1EPfwhbwoHug8B8ySNL40T61Ps+oiu88ONoOD1YgDqv9gVQ558mAY59R1rgPqzCHPt0+V+y1VQt7457vOMy5XYz02g8fEG/L049jVbB63EY/jivd1mX0OzfeA2gdHKLfn8X/uYHun90yeOCg3B+TVQbx/UG7DUr9tNXbww4s03hEIq2e02m1efiGGCmO+ZnwtwM0Z8lZc+5Qeo/59t3544f8u5IzmDHnNB2blgCmCgNk/2rgP220PpFEaO8UcuXUp16cPfu1BbtWmHvumTj3W1g8v2vGe56R2kG6fi4fOPbCqs+Zrx5efq3lDnm+fNo9x70C/er0PQvQg2PiVXgs53jG5Oh2QzNeSI+QN7ne3HueSj4X5OGbMEvLSa6j4uaU/Y9IY3/5he6fzO3ndQTt9dyweoIeXR6PuAL6uzYUPXScDQRcWLUZwakNOITR1oarHCqcDxr5PEfKi6j610n1LcvdxHbordbOZMeQ1H8qVA27zgTzBB+PmYDTkOYCMFefV6x5yjFcalx/fBZMkPp6ZgK0fp1z4aAOhXaf7NowDY7Mfq77s60Dte0MGCHEAVYbP6xQhL6rtUyfdtyS3XV3nfL3HWqs9p1af+st16vGO90m/lpr1Sshb16W54vh2bv2aM9+7xmNZfN5EiNTW23OFvMh+zVnjZN9Un2XIO6U/vAAOkPmBqlkfsLDEA4nVjuUa85x7a3kd4ZgR8oAD4fqrVp8hAAAgg5AHAACwQIQ8AACABSLkAQAALBAhDwAAYIEIeQAAAAtEyAMAAFggQh6Owr7+rSrPvLmabfZpyvuh55py7rGmfIySbcbWxsy9PzgZuefqkJ/DKfdt3/d/7sdRby+u58i6HFnnHXOsCHk4KKU33D7ejJ45czXb7I8cE5dz5JgcXecdF8ltlVhjE9nvWR5rm7G1MWPm1LW1dRyO3HNzyM+Z5/Xl3f/a/a/NM0V/jTUuR9fnxnvnlXVj9+XYEPJwcKZ4A2tWXVTqS3I1nrHS2PoaPd+U83vnSnX6VvePlZuvJNZKuRqr3aJrrbFj5sM8Ss/JIT9fntdX7b7lyBpr2aL701wWWSfpvrQux0qyVtJ9udrSHJKs8445Vqc+5N3xsyfDa7/9/saVs2adzxPhre99HD4690S//bYr4aOnr4WXZNtEXP9LQvPfZVn/2flhSm+6eFujx6ZxpXWp1Jd4t1MyprZEzqPnrK17bTMuNya2a1adpGs8YyJZp5dzUo2m+0q1W7P+P9OK9f9ZWvm/Zhf3P6PE++P4P07T86qV+uX4k2Tti2wbs6+52inmiLzz6Dq5XurTrNocWWfRNXq8JmuP0ekOeT98eBXsngyPPmz0beGlCx+HT793JVzK9U0e9Nr/x7T8f536/tN72/A/na5taw61N57uT+vpPuToMZZan0X2leo8SnN5t5P6rPHWHLoutZVY4/S6JVdTGyv7S9st1Umxbwxrjqp9hbzM/4HcfA6IfW4czX8O330WVfY33qdcW6lvbyrPcfMcGKzaEmsOL2u+Gu84vS05Ti5b66lN0zVjyTnS8hTzHqpTHfLOX9n1zN3GpXMfVkJce5bv0wuvGH1bcv217guCFh0O2wPMvGcErTdf7Q2p+0v1njd3rka2e+aJvHU5epuJ7JM1Ftk/dllLffpWL1vrUuwr9Ue1mtQvpXZZYy3XjKl12yLk1bXv94fO3Tnoa97PvZCU/og7ljN++fuWWM9Taiv17c2I51juS1yukWOl1GfVlMaVpG2W5Mbl1kt9mh4n5dosuj8tl8Ycu1Mc8r4WHr02UchrLsd+HN652+iTvHUu7Qd06QMvcl3Odat/yG4rvfkS3Wct55TGa9vMZ7WPnScu18ixcpy1nNZz4yRrnHWr+zXZbi175oltemxOboxsL92Wlku8daPtIeQNg1ylL3PW72A5zoxZbbnncG/PbbJlyNuWnqO0bm0vtkm6PydXq9vleqlPy41Ly7l+LfaNHXPsCHmZkLc+y9dc0l0tN+xLu81ZvMxlWq10SXcU1/fsfEHQrw1521369bPecNYbMyfWaFZdVOpLUo2uleu1eWJ/qaY2Piltc5s5tm2vbTuty3Zrninpbdb2QS6XxLoSa0yjOcCLWh2wmv54Fq17X3X679d+n13Tr80FNjsA6j/cNnOsLw039Nm+ylc50n1X22v2IdV2NcP91fskddvNfAbF+Uptut+qzz3mg7Cmn1+xT+l+mjIhPPbJ27F62zCkGlmfli1WvzW+NE/s02SfrpXrUurLzWG1aVat7NN0zbE6dSFv8EOLnk2Ia0JebLv27XBHM7YLhev1ZORl2LuvTfLdvNJf7GvNh9CEZwq6v/qnC4223BvM+8bTdXK91JcTa6w5rDaLVa+V+qTSNreZQ67rW92fU+rPzbkPcRtarj3Rc2ipJlebax9+tcG4NLoOCaKu+p4tBKDKWN+ZPBFw1rU6WHU1Mmh196W3X7qtW99sKxPYmrr8JeTS1Yn28RzSNdZya3jfrK+ptG1yH0v3pfR8blj76pXGle9bvV/K9af22vhI1+TWa3PFflkr5dok2VbrXxrO5JXO5KlA1wbEh8N50XbmC6+Ed8Zcgp3kkm37QTT8C7iv+VDXHzpbMw5Se1J6E3rejLqmtF6bL/ZbNbo9N4+nJir1SaX5dp3DsyzbcnSdvLXIsV65eUq3peWcWr09RyaI6UBlBoD2fZb/Qyoz90op/ETDkNcFGqtNfW7IscOAM6xJbZuAZO/3MEBlwpJUCE6e56j4nFqXrzNBePD5a4VTZ8iL+2HtZ46sk6zaSPbL2xJdU1u3eOfIzRXbE6s/KvVZrPqxcxwTQt6uIW9saJsg5OU+ZHusD6sdNB/ghfmmfJPouWrr2pjxublie+or1VjLOaUaz/iotM2xc9TG5+qk2hy5tppdxuhbacy8ura2vta896wDuwpwmQBQ/uMsH/KskDXoX42VhvPk50+y+2eFnJX1ds19U9vLPnbCjiFPGva1+yPv3+Dztvtsbe7TgNqvSshL49Ky7h9LzmHNN2ZbpfF6OUfXS7I/3ebIOi89R2L1leqPHSHvRM7kfRjeus3oc6n9pd9qPpgKH/hjpA/p2jZrby4vOUduvtJ2dN+YWotVk9r0bUmpxjM+knV6jDWHpy2tW7Vj271tJWPrkzhOs2rkbcnW43cKebUzWfkQVnvP10Jga+qQ192f1Zy5P0zlfjX3IXvfO5kwGZWeM8uwT+5vop6jMX9AV0KeVNpPr/5+b+gauZ4j6+RcOXqs1Z9uda1u00rj4q1njiQ3l0XXHSNC3s4hb+bv5Hn+0nUGQY/2r1j/XFO8OdL40jy1Ps2qi0p9iVWT2nK3lm37JLkdSfZJu7Qlub7YLvtK8+bm0HJ1nvF6W9YY2Vaac9u+ViYo6XBgBoBayCr0VwLFVCFvcGarY83ftDW1hfC6/kyLNfVAVAqztedcG/QVAuRG/TFaO4GQZy1Lnpoo9Vk1pb6kNK7WpukauZ6WPfNEVp137DEi5O0c8lYvkOq/kbex669rs39FS64PKodmHueHmbDLGyaNnWKO3Lrk2Y5nvtS27bZKfVHsl3I127aV1Opjf64mtXu26dmO1Z7obcVbDzmHHG9JfaWaqA038uDehRwZTowAsAlFm7a+UsAohw8rhA05AkwXVnufQ91nRe/slm7rxg3nFmfPqvtXCIsrzRwGqzYa9BnPiSX98Vs9m5e9z0Ol/fRK99eS+q1bixyn20vrJbmxtTlkf24Oq89i1XjGHStC3gQhL33PbvDfmWk7fx+v/QCufbC4gmBVu6344h/y/WU6Vpxbr3vIMV5pXGm8VVOr98xntZXGJd4azVNTo+dIZL+uq61LaR4Pa3yk+9L6mDE5sc6avzQ+BYE1/Z5MYUnaMYSVQuJkIa+hPx/6nwnr+67uc2ofzG+FREslhMU5am1p3aqN2sdwSO/z4PmNrM/d7r6tqecgtsnbtFyTaqVce6T7SvNEVl+uvjSPJOv0mNL24m2Sq5HrVl3imWNJTnHIm9Yc/+NF+6FSOUPXHTiqH5ZwvbFlzdh6LdfnmfckWfsX23Lt8lbLtUelvsQ7b1z3zFeS5qjNM8W2/Gp/6HlD2oFpgtCEl0krcs9X7jO2bd/PH7fRVK+f3Dxj27VYV6odM4+81az22tzebSfbbOOYEfIm04W4TNDb/f+ubS9T1D7gmg+j6l/rAI5BfD/LQOf6Q687c3Q0Qc/1h6lxuXsPcmdCS2dIgUNGyJtUG/QGl22by7S7BDwAp5P4vlrDGTRcZ8ZOVhtY2/vlukw7yx+v+vHu8IczjhQhDwAAYIEIeQAAAAtEyAMAAFggQh4AAMAC7TXkAQAA4GQQ8gAAABaIkAcAALBAhDwAAIAF2n/Ie+zG8Pkn14Ww8vmbN9k1AAAAmNR8Z/K6sPfZy0YfAAAAJjXr5dqr164L4doZsw8AAADTIeQBAAAsECEPAABggQh5AAAACzRryDvz8g0hfHJ9eP8xow8AAACTmTfkNc6Ez5p/UuWGcNXsBwAAwK5mDXkvvnk94Q4AAGAGfCcPAABggQh5AAAAC0TIAwAAWCBCHgAAwALNGPLaX9V+/uZNRh8AAACmtP+Q99iN4fPmn0zhLB4AAMBcZr1cCwAAgHkQ8gAAABaIkAcAALBAhDwAAIAFIuQBAAAsECEPAABggQh5AAAAC0TIAwAAWCBCHgAAwAIR8gAAABaIkAcAALBAhDwAAIAFIuQBAAAsECEPAABggQh5AAAAC0TIAwAAWCBCHgAAwAIR8gAAABaIkAcAALBAhDwAAIAFIuQBAAAsECEPAABggQh5AAAAC0TIAwAAWCBCHgAAwAIR8gAAABaIkAcAALBAhDwAAIAFWnTIu/TU86PaS7YZs4va9mT/3Pu2T7n7csiP/1j7uC8n/fjE9RxZlyPrvGMAAGWEPCd9EMqRYzz1iTVGt0myv1ZrSdv1sMYnVr3FGpvIfs/yHMbsc42ura1bdt2f2F9jjcvR9bnx3nll3dh9AQDYCHkOJ3HQqW1T9m+zf9YYb9sY3vGpTt/q/jnEbUm5GqvdomutsZ75rHlyZJ2k+9K6HCvJWkn35WpLc0iyzjsGAFB2IiHv5nPPhEuPPBBuNvrWbn0gPPTUM+HeW40+p10PPNFUB5w4T06u3mqPdJ+cyyJr5Zht27y2GVvaX82qm4KcWy/npBpN95Vqa8ZsJ6e0P6U+zarNkXUWXaPHa7IWAJB3AiHvvnB+9UF9/i6rb+P2C6sP9Av3mX0l1kEhqvVZZF+pziM3PreN0vasulK9xar3tul6XRPXZVuuLrWVWOP0+pTk3KXtluqk2DeGNYeHd6zenhwnl6311KbpmrHkHGl5inkB4LSbP+TddXH1AX4x3G71rfmCYE3uQGEdVGp2PeiM3ZdSvVWXq89J83hY4yPZN3ZZS336Vi9b61OL82upXdZYyzVjakviPDW5cbn1Up+mx0m5NovuT8ulMQAAn5lD3p3h3keeDw+du9Po23BdznXIHSisg0qJrq+RYz3jZI21LMkxnvocq97blui+tK5vdb8m261l7zxT0du19iO3XOKtk+IYyaqx5Gp1u1wv9Wm5cWk516/FvrFjAAA+84Y81/fsfEHQwzp46PXawST2l2pq48eo7Vdqy/Vpukay+r1tSa5vTLtuy63LdmueKelt1vZBLpfEuhJrjGTVyLa0XJor9mmyT9fKdSn15eaw2jSrVvZpugYAUDZryGu+Z1c7Q9dczt3tBxeJPjikZavNYtVrpb4k1tSkOjkmLdf6cm0l3jlK8+q+tK5vdX9OqT835z7EbWi59kTPoaWaXO2YOXLt28yRW6/NFftlrZRrk2RbrR8AsJ0ZQ95+f3ChlQ4usj13MPHURKW+RNfk1mV7aV6rr1RvifVe1vhI9o1dlm05uk7e7pPelrXt3HJOrX7sHJ51i3eO3FyxPbH6o1KfxaofOwcAYGi2kNd8z672g4vmcu5uP7iQB6DcgUK2ew4mpZptxufWZXtpXquvVG/xzuHZD12TW/fMlVvPte2D3t9d90XX1tZzavvhmUfXS7I/3ebIOi89R2L1leoBAD4zhbx5f3CRlA4e+rakVOMdX5Pq5Ji0rFl9aR5N1yVWn7ct0X1pPTdmTLu3TYs1nrqSNIdk1cjbkl3HJ7I2LtfosVZ/utW1uk0rjYu3njmS3FwWXQcAyJsn5M38g4vEOiikttytZdu+RNfU1nNtydh6i3eOKfcj1xfbZV9p3twciZ5rG3pb1nyyrbS9bfssqd4aV+pLSuNqbZquketp2TNPZNV5xwIA8mYJea7v2bn+/bxx9IGidDApHVS27Ut0TW0915aMrddytVPsR0mtPvbnalK7Z5uemhK9rXjrIeeQ4y2pr1Sjebczdk5rvTaH7M/NYfVZrBrPOABA2Qwhb94fXETpAOE92MS+Wn+urTQuSfOXyFp5a7H6SvVarla2p+XSvLFvLGueSPbrutq6VOrzym1viu3GOmt+z3irJjfOM18k6/SY0vbibZKrketWXeKZAwAw3t5D3lw/uNDkQcJzwBh7ECq1a7U63T+2Ptdm8dZFY2o9cvuda5e3Wq59V3reuL7rttIctXnGbKtWO2YeeatZ7bW5vdtOttkGAKBuzyHvZH5wAQAAcNrN88MLAAAAzIqQBwAAsECEPAAAgAUi5AEAACwQIQ8AAGCBCHkAAAALRMgDAABYIEIeAADAAh1gyDsbnvvt98Nra0+GRx/WNV8Lj16TNd8Pz/1Q15yEm8L7H1wXPn/zJqNv46ULH4dPL7yi2p8Ib33v4/DO3bLtOH3pB38If/nvvw9fMfpQ8NjvV4/bH8I99xt9E/jKT/8Y/vLNd8OXjL5pPBie/8W74erb74bLj1v9OEr3vxse/Pc/hvsfM/pyujGL+hx4+YYQPrgxvGj1AQfqwEJeF96unDX6Ns5fWdVc+3a4w+ib1MPfDi+OCJBXr11X/RC4dO7D8OnT18JLRt+Zu6+t+o4/6J3KkDdFQCPkzWizr7a3w/PftMbtqtvuq88afQfqRELezI/TNy+H11fPe/l12/4RT9DDMTmskNeEKuvMndSe6ZvlzN2IkPfim9eH8MkN4arRt9aEuA/DW7cZfZ1iCDwShLwtHX3IO15nX3g7XP3F5XDW6JvWKQl5OzvEkBedCZ99Ur9aAxyKwwp5P3w4c3lWGHl2bSfebT12Y/h89cb/7GWjb+2V8M7TH4ePzj1h9EntZdvh5dxp3fLae+E7v/x5+KLRtytC3pYIeSeGkFdAyOuLl20/uT68P+vjAWxnnpDXhaX1d+hyl1onCnnN5VyxPbtWf6/v4XC+67vjZ0+Kdm1TlzRn8Wqn8JuzeM4zdI4zfrv7UbjnV6ug96sr4Razf4T1pRlJh7y3wv29/kyY0XP99C3R/5Nwz5u6TYWXJiittt3cxjnifqRt62128623p/qbfYltqk5sv9n2erwyNlClfVeP1YM/+Imq1fudOQCvHwOh9zhZ49ptD7dZ0h2Qi5c625rXX3iwDVTr2jfCJVF36dVVWzywP/6GqDHm6w7K65pBQHs2XF61x4N2aXtJNeT19mdFho/1vvTnTtuN93mwv8rJXt6uvDcd74PIfC+MfQ+MfJya10uuPz1n6nlNY4avDc1+rawv2147Y/QBh2X/Ic8Ibv3v1OkfWijN9/OGP7ToWc9lfKfPDIXdNnthc9WmvwvoOpPne8O/FH9s8b0rmQ8NrT3rt//v5l0MX/1lDHrvhXuesPodjLAwOJPXBTcZHNoaFTK6uXoBY9W2qfGGvLQeD15/CA++KQ5Q67FGmGnGigOcCJzrfTDurzl2G2nf5TyDebsDsnwMunHDx7e/P/0zefZj2c6lA/oIzYE1H/Kag+c6ILVBTAam9UF7fWDuxskDtbGNZlzvYN7Nbc1lnB0qhbw2CMgDvjFPCieprVtvAt56XJTfhxPheW9a74OubfA+EPqvt7Fqj1P+ObCC3vp56NYHodoaW+D6wx44AHsOeW3oevFnX+u3N+HJOGO365m8ZvzwTFsTKkWAa8/0DesGXCGv/Y5G+VJtewm2fqk22f6S7Rd//OsmtJle+1FxzDd+fNHsz7ODgg559oe9HboGoaPHH/Lag4+csz+22cfMPq0PeOaBzAiH0SCMbcGco79P+rFN+o+xvY/6eRgGQfvxHcUIYC37oK3D2TCs6ZDVzjMIT81BWm53GCAja/4oH/I2ZwR77c39VGd61gGiFFBq4cXjf4T3Hv/r8N+mvwr/cas1xuZ6b2YCXTO28Fqx5/aqPE7W47/SPL9qTPv6ia+N9rkcBu+VkSGPS7Y4FnsOeeWzdIPwtGPIK15mLZ3ty/GEvEm/j5fM8728nieutEFw1Pf02jChP/z7QUQFJ12XDgKOMwO5ENI7mPSCkgw7/bHNmFWfqXhwmzvk9Q+m2QNrM7Z7zJv9zszTO+iq+5IZN0pz8N1nyBNn6Aybg3ThgG7Ihrzu4G9ty7qf7b7GvmEAaU0R8qay23uzV2MYvt7GKD9Om8fZYDyPzesq09cg5GGhZgl5gzN5OZOEvNoZuolD3h7P5Pnrd7P9mbwjD3m1A9BBhDxjvycLef225vmw5h5jppBXD2/ThjzvwX8dJszHIFpOyKu9h1zvsSxPyMsFaa2bq3leMmO2CnmVf00BOACzXK51Bapoksu1lfEr7n9nzxXyDus7eWMv1za/sl31bfedPDvwNB/u4pKi/WGvA1smPPVMF/L6QTTjIEJef3u5/e49BuZ+d/dfPw/rQBj7d9z/aO8hzxuSJgp5I+Zp97O979b9aE0R8g7hcq39XpTsub0qj1P2dTbUBu/4+inMOTLk8Z08HIs9h7yVJng5z+btGvJSqKydzevm6IdP44cX6XJzJaRO9W/krR3Rr2ubD3Id6FYHhF4QacJLPxi1YaUfKto2dTBZjZXr+sCx3l5qc4a81Fc8CI0JeV3toF1pg0AmABghTz++aTu9g2v3+G72Uwe6bj2OG9zfUp+wvmxZObDuPeStNNuoBa+pQt7mOSsGgO7x2Wyv3b4VKDaho99+IjzvTeN9YL1/Nf1elYrvg075cepeT7XHsXutrJ+7wfOU5J+vIX5di+Ox/5AXdUHP/o6crtsl5EUp6PUN6/X3BTPBMAXCUl33vbzyP5DZnp2rf89unu/jTffv5ImQkA4WzYFDnW1K4WRteDaq0R101gZnCrpw1onbaw446WDSC0qlkDecq1U+uGVDXqT33TjAtQeuzMFt8BjZcwz32zrY9mvifeg9TlK33/37qXQHSzvAdQdIy/qgOWHIi9b7I/TGTRfy1v16e+m+pH3R41P7IDikgLLhvky4D9X3pvU+ybx/hVLIK74P1mqP07Bf1qyfM/X4p/bBa2P9h0ySCZB8Hw9HZJ6QdwrwP17gaFmhHNhRE/IKl3OPE//jBY4LIW8y3Sn8StB7KX43Lxf0mhB4/P93LY6IebYSGCm+jmSgW+TrqvuM57t4OCKEvEm1HwK1v/KaoDe4HNtepiXgYQ7p+48RAQ9TkK+pRb6u4mVaAh6ODCEPAABggQh5AAAAC0TIAwAAWCBCHgAAwAIR8gAAABaIkAcAALBAhDwAAIAFIuQBAAAsECEPAABggQh5AAAAC0TIAwAAWCBCHgAAwAIR8gAAABaIkAcAALBAhDwAAIAFIuQBAAAsECEPAABggQh5AAAAC0TIAwAAWCBCHgAAwAIR8gAAABaIkAcAALBAhDwAAIAFIuQBAAAsECEPAABggQh5AAAAC0TIAwAAWCBCHgAAwAIR8lYuPfX8qPZteOey6k5iP2p2nWfK+xTJ+bxz5+p2HQ8AwCE49SEvHqgTq0+3jSHnTqw6yarxjPOaaq4p5tnn/crNLds9yyW6Lq6XyFoAAPbtVIY878F3zIFZzzlmrKTH6TkTWeOtlcs1uTlSn1yv0XN5WPOU6DGlOVKfvtX9NWPGeecEAGAqJxLybj73TLj0yAPhZqNv7dYHwkNPPRPuvdXom5B18E1t+rZkioN4aV9qbTmyNi7nyDGpVi/Lekuq10p9U9lmG7kx6f5IubrSulTqAwBgH04g5N0Xzq8OeOfvsvo2br+wOrheuM/sq7sz3PtIe3Cubcc6+KY22Vc7SNf6PfR29a1e9rDm0H0Wa5veeq3U5xHHb2vMPKlGj5HrqU3LtUt6HgAA9mn+kHfXxdUB72K43epb8wVBS3OWMJ4BPBe3Y8+hD76J7Je3ut2S5vDKjdfLVv8Ycs5cn0X2leZIxvbl6kvzlIwZl2r1rV621qVabWksAAD7NnPIa8+wPXTuTqNvw3U51xIDZBrXhMnxZ/Lk+piDdqmvJo3Vt2m5tF4j6/W40jyyT4+Pt5Ku13I11pjSPCXecbLOWtbzlOat1ZbGAgCwb/OGPNf37HxBsMoR8mJ/6cA85iA9pjYnzRFvE6tf1sh+2S7JPl0r1yVrnL7NtWlWvV4utSWxT5N9staia3Lr3nl1fbytkeMBANinWUNe8z272hm6JpxN8IOLESEvHXz1QViu6z6t1u9R2g/v/KU6a165Lsm+tKxvc22aVe/py7HqvGOTUn3qq80Z+2WNrq+NBwBgn2YMeXP84EKohLx0ANa3kmyz+iU5T4keJ6V+eavHeOfIkXPrPkn26zGlPovus8br5RKrzjM21uToOnmr1cbl1gEAmNNsIa/9QUTlBxfN5dx6EHSZMORZfZqntjZPbY7a+GjXbSSxX0pt8jbXpuk+q7Y0XsvVeueYan9y88Rbi6wFAGDfZgp5e/7BhaUQ8uQB13PwrdV45/POo+viumwrzWONleu5Ns3anryVdL2m+6za0ngtV7vtdrxtWm57284HAMCU5gl5c/7gInF8Jy+qHXw9B2dZU6r3bkve6jFj5rBqZb/uqymNyfV5tjN2X2K9pPusZdnmqcn1Sbq/NK42FwAAU5sl5Lm+Z9eEstq/nzfCBCHPc2DWNbvMVxtbGx+V6nS7Zz6pVO/dpubdh1gnWTVJ6i/VlebxjI9kf2651AYAwD7NEPLm/MFFu614QB3IXAaOfVab1a6Vxuboesnq94yTcrVj2y1WbWor9aXlMeQ8cg6r3VKbJ/Xpmtq6bJN9etmS+gEAmMPeQ97sP7gYSR58pzgYl8bX5p56X5Ix2y3J1U21n1PT+xXXrX1Nbbn7URqjl631XBsAAPu055B3Aj+4AAAAwEw/vAAAAMCsCHkAAAALRMgDAABYIEIeAADAAhHyAAAAFoiQBwAAsECEPAAAgAUi5AEAACwQIQ8AAGCBTnXIu+NnT4bXfvv98NqVs2b/MtwU3v/guvD5mzcZfRsvXfg4fHrhFdX+RHjrex+Hd+6WbUfmtivho6dX923lo3NP2DUAACzQ0YW881dWoezat8Mdg76vhUevrfpiaDM9GR59uD/mKEPew98OL672+bkfGn2Gq9euC+GDG8OLRl9y6dyHqxB0Lbxk9J25+1oTkI4z6L0S3iHcAQBOqQWFvL4mwDnqjs6IkPfim9eH8MkN4arRt9aEuA/DW7cZfZ1iCDxkzX07wv0GAGAChLxj4w15j90YPv/kuvDZy0bfmvdMV3vZdng5d1q3vPZe+M4vfx6+aPRthZAHADjF5gl5P3xYXTq1Qoq+3Covr54Nz4mx2os/+5qYp1UKeevLtLnxzf4+HM6v93u1vN4Hfdm3tN+5Gn3/u3512VgGWr3PfXH/5HzdWbzKZdpRIchxxm93Pwr3/GoV9H51Jdxi9o9EyAMAnGL7D3muM09tgOqFrSZgDQPTtGfyjO1GKdw142PNk+HFa3FfdBjz7HcXDmWA6+bfjKuHvHW76/Fsf2wRrp0x+jaaH1t870q4ZPQNtWf99v/dvIvhq7+MQe+9cM8TVv8IhDwAwCm2/5CXCWuSHcja4KMD2Jwhrw1SMqT1w5hnv9szcMMzbf37MXXIOxM+q16qbS/B+n+UsP0l2y/++NdNaDO99qPimG/8+KLZ72H/YhgAgNNhhsu1XYCJQSkTTpow0/UPeIKPYfeQl4KprOmHMc9+NzXqPjSabaTwN3HIm/T7eMk838vreeJKGwRHfk+vCXdH+4tgAACmMc938joyFMlg5Q1ukbd2tpBX2UZTM3fI2+OZvLn+OZLJzuS5L0cDALAss4a8RIeX3CVNyyGFPM9+52r692PqkHdY38kbe7m2+ZXtqo/v5AEAsL0TCHlWoGmDlDu8Vb7jF80R8lz73YWy3v1t5u8HNR3omnVz7m6bKhBqU/0beWv8uhYAgKOy95DXhrIusCRmQOnCS48d5tYBqDMIaSulkKfHb3Rn3Nwhb9Pfn0fvt66x7le/Jm4vex9ScFwzziZ238sr/3dm7dm5+vfs5vk+Hv9OHgAA0zmRy7WYB//jBSEPAHB6EfIWrftuXiXotb9GzQS9Jigd6S9Vb7sSPhr1C2IAAJaDkLd4bdArX7bN/Zty7WXao/6nSLqQGhH2AACnCSEPAABggQh5AAAAC0TIAwAAWCBCHgAAwALtNeR99c4/DV/4ky+bfQAAANgfQh6wB//vfz9XXK+J9TXWuG3tMl8a650jV7freABAHyEPmFgMIYlsk7c1tTrPPHr7Wq5WK/VFsj9Xm6vxjNV0XVwvkbUAcJoQ8oAJ1IKFbLP6tVqNZ44o1en62rpW6pd9njp9q/trxozzzgkAS0TIy/jKT/8Y/vLNd8OXjL6cZsy//zE8+IOfmP2L9vgb4erb74arv7gczlr9R+5f/mcMb0+H//Vdu1+ygoVs8wSPWFNjjdNSna7X7bX5Sv21sVquPrZrubrSulTqO/N3jzT9/+efhv/3NQAsASEv47hD3oPh+V+sAterzxp9oj+GMuXy41a9w0Qh79Kru8+xD1OGPI9afam/tP3abU2s8xgzJtXoMXI9tWm5dknPs0bIA7BwhLyMbULe4XCGvGz/yTnGkKdDxRh6rqTUF43tT+u12214x5a2qecozVmrLY3tIeQBWDhCXgYh72Qcash7/p+eXgWCR8K/GH2aFTLcwaMT62uscYnuT+u1Wym2Sbo/KfUlssZa1nOU5qzVlsb2fPc74f+sat//O6MPABbg1Ia8L/3gD82l1bWfvtXrb0JebHvs96LuD+Ge+8U8978bHpRzdO5/TNS4tKHr9RceDGdfeFtcPn0jXNK16bJoIgPRNy+H12WfsrkU6wh5mcuvTQiTc+n9yc75bLgs63q1Rp8QH5fhfIfLChlbB5Edpe14b3NknUXXS7o/ty7bS3Pq+nhbI8cDwGlxKkNe+92534evrNveCvfHgCbO3KXv1w3aSmf3utC3bchrQo0OPiI0tQHw7fD8N/U4HQZrIc4R8qIuwK1DVrduf2+vNKdzeyuHeiZvjBQqZLjQQcMKHrFtW3quJPV5b3N0v1yvjZVKtamvNl/slzW6vjYeAE6L0xfyckGsOWO3OVNnBrpmrDqbN+jfIeSpENQPPG3oG5zV6s7e9YOXM+TFENkjA2RrEywz218rbbM2dmP3kHdH+I/v/nX478dt791pjZmWDiGpzVr22nVMWq7d5uj+2roU+3J0nbzVauNy6wBwWp2+kNeEOXkWL2nP5qWAZp+169cM7DPkNWFuGMLS2H6Acoa8bH9fukRbDl/lOXuXoQvbPfYzeVYI8fRpus47LkrbkWPScu02R/fX1i2eMbvME28tshYAThNC3poj5NVC3CJDXlfbBDTjO4Jrzjnld/iMMHesIU8Gilyw0O2lAGLVWmSNZvXnxnjn0re6P8fq97ZpuW1vOx8ALBWXaxPP5VpVM3Bsl2sdIa89ixfD3XRzNpqwNwytu4e8w7hcm2uTfaUAovtKtTm5Oay5avPHflmT1nWbvJVytVJpvKT7S+NqcwHAkp3CH178JNzz5irAWT+8EL+wHYa8Yc1AMeR1P6QYBLLIE/JS4JLBqBuXOyOWPfPmDGT6hxZdoLS/Wzcu5LWXb4f7N/xxyfHJhRC9ngsgVn+utkSPKc1Xmz/1x9ukVKP7ktzY1Cdvc2R/brnUBgCnxSkMea0mxMXQ1tH/S8Xgn1gxagZKIa8LSLuEvKj33bYoG6q6OUXtZrvDPl2z3o6aP7WnoDfYnzUR1MR938hf+m0D6oYdKg9PChTyNhcycn26La3n5imRY3Ljt5m/VBv7SttKfbqmti7bZJ9etqR+ADhtTm3I24sm5BUu52LxxoQKXZsbm8JKiTUu2bV/LD1fbh9TW277pTF62VrPtQHAaUHI28FXftoPdPYvcgEAAOZHyNtJ9z29hIAHAAAOBCEPAABggQh5AAAAC0TIAwAAWKC9hjwAAACcDEIeAADAAhHyAAAAFoiQBwAAsED7D3m3XQkfPf1x+HTlo3NP2DVL99iN4fNPbghXrT4AAIA9mO9MXhf23rnb6NuDv/jWf4Xf/c3/Db/78380+898+d/Cb2J/YtY9HV57XNT8zW/CD7aquSVcvXZdCAQ9AAAwk1kv17504ePw6YVXzL7JdOHtN9/6t/CvMXRZ4a2r+devp7Z/NGq78CbafvDnOsR5apKbwvsfrILetTOqHQAAYHoLC3kxrP1XeO3LaVkHt2gYzBpf/80qnKWx6UygDmvtnL/51tPump7msu114bOXVTsAAMDElncmby0X8tr2zVm8VnsGbhPOmnUzCK7aH/+38BfOml7fSnPZ9oMbw4tGHwAAwFROX8hrLtVuztilM3u/+dY/ijN8qW1zNq45a7cKbj9Yn73z1KRtCC/fwHfzAADA3s0a8s7cfS18+vSH4a3bjL7JZUJe77KsPKsnL+O27dZZvc0lWk+N2G7CJVsAADCDeUNe45XwTvNPqlwLL5n9U6mcyft67oxeDG39s3vW2bq/cNWkuQVCHgAAmMGsIe/SuQ9nCHdJJuSl9soPJtJ39Mzv7nUBzlMj2xtNyLs+vP+Y0QcAADCRU/jDC3lZVrTP8evaiO/kAQCAGRxWyPvm5fD62++Gq2+/ES5Z/aPkQt5K9wvY8r+TN2xrz9zJUOep6ePXtQAAYA4Hdibv2XC5CXnvhtdfeNDor0uXUIfk9+9W0j910rHPvHUhLjEvwXpqOnwfDwAAzOTgLteefeHtJuRdftzuP178jxcAAGA+M4a89le1H517wuhLujN5v7gczpr9x4v/uxYAAMxp/yHvtivho+afTCmfxbv0anuZ9uqrz5r9R625TEvAAwAA85n1ci0AAADmQcgDAABYIEIeAADAAhHyAAAAFoiQBwAAsDi3hP8POe3mVNBkn3sAAAAASUVORK5CYII=;" parent="1" vertex="1">
                    <mxGeometry x="-528" y="-390" width="633" height="310" as="geometry"/>
                </mxCell>
            </root>
        </mxGraphModel>
    </diagram>
</mxfile>